<?xml version="1.0" encoding="UTF-8"?>
<svg id="Capa_1" xmlns="http://www.w3.org/2000/svg" version="1.1" xmlns:xlink="http://www.w3.org/1999/xlink" viewBox="0 0 500 500">
  <!-- Generator: Adobe Illustrator 29.4.0, SVG Export Plug-In . SVG Version: 2.1.0 Build 152)  -->
  <defs>
    <style>
      .st0 {
        fill: #144d84;
      }

      .st1 {
        fill: #f0ba51;
      }

      .st2 {
        fill: #fff;
      }

      .st3 {
        fill: #e3e4e8;
      }

      .st4 {
        fill: #ec6f56;
      }

      .st5 {
        fill: #401a4c;
      }

      .st6 {
        fill: none;
      }

      .st7 {
        fill: #fbc651;
      }

      .st8 {
        fill: #efaead;
      }

      .st9 {
        isolation: isolate;
      }

      .st10 {
        fill: #a9a8ab;
      }

      .st11 {
        fill: #d6d6d6;
      }

      .st12 {
        fill: #556168;
      }

      .st13 {
        fill: #48b192;
      }

      .st14 {
        fill: #6c7c85;
      }

      .st15 {
        fill: #f5d055;
      }

      .st16 {
        fill: #09385a;
      }

      .st17 {
        clip-path: url(#clippath);
      }

      .st18 {
        fill: #f7c5bb;
      }
    </style>
    <clipPath id="clippath">
      <polygon class="st6" points="439.5 372.5 194 430.2 81.3 330.8 296.5 157.6 439.5 372.5"/>
    </clipPath>
  </defs>
  <g id="OBJECTS">
    <g>
      <path class="st3" d="M116.2,459.7c35.1-5.1,34.7-24.2-4.9-16.5s-19,20,4.9,16.5Z"/>
      <path class="st3" d="M444.7,427.9l-233.8,27.9c-6,.7-15.4-.6-21-3l-129.3-53c-5.6-2.3-5.3-4.8.7-5.5l233.8-27.9c6-.7,15.4.6,21,3l129.3,53c5.6,2.3,5.3,4.8-.7,5.5Z"/>
      <path class="st12" d="M449.3,385.4l-238.4,56.1c-6.1,1.4-15.3-1.3-20.5-6l-120.5-106.5c-5.2-4.7-4.5-9.7,1.7-11.1l238.4-56.1c6.1-1.4,15.3,1.3,20.5,6l120.5,106.5c5.2,4.7,4.5,9.7-1.7,11.1ZM326.9,273.1l-245.6,57.7,112.6,99.3,245.6-57.7-112.6-99.3"/>
      <path class="st0" d="M441.2,357.5c20.5-28.9,15.9-58.8,1.8-73.3-8.8-9.1-12.8-22.9-10.1-36,8-37.9-6.3-64.3-21-75.2-8.8-6.5-14.2-17.8-14.3-30.1-.2-48.4-29.3-80.8-58.8-79.1-8.5.5-16.8-3.8-22.3-11.8-26.4-38.5-97.9-39.7-116.2,8.7-4.7,12.3-14.8,20-25.5,18.8-26.5-2.9-43.4,34-41.6,68.2.8,16.8-8.4,31.2-21.3,33.5-32,5.8-31.6,48.8-17.5,79.3,6,12.9,4.2,28.8-3.9,38.6-3,3.6-4.9,7.8-6,12.3-4.7,19.7,7.5,40.8,23.9,42.1,200.2,16.1,284.6,16.2,312.6,15.3,7.9-.2,15.3-4.2,20.2-11.2Z"/>
      <path class="st4" d="M113,102.8h98.7s-9.1-17.1-24.1-10.6c-15,6.5-26.4-13.7-46-17.2-23.8-4.2-38,10.5-28.5,27.8Z"/>
      <g>
        <path class="st13" d="M139.2,244.5c-3.4,5.4-15.6-.8-24-6.1-.8,3.6-1.6,7.5-2.3,11.3,22.4,15,41.5,3.7,39.8,12-1.6,8.3-23.4,8.9-41.2,1.1,0,.9,0,1.6.2,2.3.6,4.3,2.3,12.3,6.4,21.1,28.8,14.8,32.2-17.5,38-7.2,5.5,9.6-9.4,21.2-26.1,25.1,1.4,1.5,2.8,2.9,4.4,4.3,6.1,5.5,14.2,9.3,22.4,11.9,3.3-3.3,7.3-8.5,10.3-16,5.9-14.4,12.1-2.8,3.2,19.1,7.7,1.2,14.7,1.5,19.3,1.2,6.3-11.7,2.8-23.1-.3-27.3-3.7-4.9-11.5-12.3-8.9-14.6,2.6-2.3,6.4,1.5,15,9.3,7.1,6.4,19.7,9.3,29.9,4.6.4-1.3.5-2.5.5-3.7-.3-4.7-.8-9.3-1.7-13.6-4.2,0-10.4.1-15,.9-7.7,1.3-19.2-5.8-2.5-7.9,7-.9,11.6-2.4,14.6-3.8-3.2-9.3-7.8-17.4-13.4-24.4-1.6,3.4-3.9,7.8-6.7,12.4-5.7,9.3-10.6,5.2-3.4-3.8,3.8-4.8,5.2-9.9,5.6-13.6-4-4.2-8.4-7.9-13.1-11.2-2.9,8.4-8.3,22-13.9,25.1-8.3,4.5-7.1,1.1-1.3-6.7,4.8-6.4,8.2-14.4,8.1-22.9-3.2-1.8-6.4-3.4-9.8-4.8-1.3,7.6-3.3,17.8-5.9,22.5-4.3,8-10,10.2-5,1,4.1-7.5,4.7-16.3,1.8-26.8-15.8-4.9-32.5-5.6-47.4-2.1,0,0,4.3,6.8,1.4,14-.6,1.4-1.2,3.4-1.9,5.8,11.1,4.5,26.9,4.9,22.6,11.8Z"/>
        <path class="st5" d="M121.2,214.7s1.9,1.2,5.1,3.5c1.6,1.1,3.5,2.6,5.6,4.3,1.1.8,2.2,1.8,3.4,2.8,1.1,1,2.4,2.1,3.6,3.2,1.2,1.2,2.5,2.4,3.8,3.7,1.3,1.3,2.5,2.7,3.8,4.1.7.7,1.3,1.5,1.9,2.2.6.8,1.3,1.5,1.9,2.3,1.2,1.7,2.5,3.3,3.6,5.1.6.9,1.2,1.8,1.7,2.7.5.9,1,1.9,1.5,2.9.5.9,1,1.9,1.6,2.9.5.9,1,1.9,1.6,2.9,2.4,3.7,5,7.3,7.9,10.8,1.4,1.7,2.8,3.5,4.3,5.1,1.5,1.7,2.9,3.4,4.4,5,3,3.3,6,6.4,9,9.3,1.5,1.5,3,2.9,4.4,4.3,1.5,1.4,2.9,2.7,4.3,4.1,2.9,2.6,5.6,5,8.1,7.2,1.3,1.1,2.5,2.1,3.7,3.1,1.2,1,2.3,1.9,3.4,2.8,2.1,1.7,4,3.2,5.6,4.3.8.6,1.5,1.1,2.2,1.5.6.4,1.2.8,1.6,1,.9.5,1.4.8,1.4.8,0,0-.5-.3-1.4-.8-.5-.2-1-.6-1.7-1-.6-.4-1.4-.9-2.2-1.5-1.6-1.1-3.5-2.5-5.7-4.2-1.1-.8-2.2-1.8-3.4-2.7-1.2-1-2.4-2-3.7-3.1-2.6-2.2-5.3-4.6-8.2-7.2-1.4-1.3-2.9-2.7-4.3-4-1.5-1.4-2.9-2.8-4.5-4.3-3-3-6.1-6-9.1-9.3-1.5-1.6-3-3.3-4.5-5-1.5-1.7-2.9-3.4-4.4-5.1-2.8-3.5-5.5-7.1-7.9-10.9-.6-.9-1.1-1.9-1.6-2.9-.5-1-1-1.9-1.6-2.9-.5-1-1-1.9-1.5-2.8-.5-.9-1.1-1.8-1.7-2.7-1.1-1.8-2.4-3.4-3.5-5.1-.6-.8-1.3-1.6-1.9-2.3-.6-.8-1.2-1.5-1.9-2.2-1.3-1.4-2.5-2.9-3.8-4.1-1.2-1.3-2.5-2.5-3.7-3.7-1.2-1.2-2.4-2.2-3.6-3.3-1.2-1-2.3-2-3.3-2.8-2.1-1.7-4-3.2-5.6-4.4-3.2-2.3-5.1-3.5-5.1-3.5Z"/>
        <path class="st5" d="M145.9,308.8s2.5-1.4,6-3.8c3.5-2.4,8-5.9,11.9-10.1,1-1,1.9-2.1,2.8-3.2.9-1.1,1.7-2.2,2.4-3.3,1.4-2.2,2.5-4.5,3.3-6.4.2-.5.3-1,.5-1.4.1-.5.3-.9.4-1.3.2-.8.3-1.6.5-2.2.2-1.2.2-1.9.2-1.9,0,0,0,.7-.1,2-.1.6-.2,1.4-.4,2.2,0,.4-.2.9-.3,1.4-.1.5-.3,1-.5,1.5-.7,2-1.7,4.3-3.2,6.6-.7,1.1-1.5,2.3-2.4,3.4-.9,1.1-1.8,2.2-2.8,3.2-1,1-2,2-3,3s-2.1,1.8-3.1,2.7c-2.1,1.7-4.1,3.1-5.9,4.3-1.8,1.2-3.4,2-4.5,2.6-1.1.6-1.7.9-1.7.9Z"/>
        <path class="st5" d="M168,268.3s.2,0,.5,0c.3,0,.8,0,1.3-.2.6-.1,1.2-.3,2-.5.4-.1.8-.3,1.2-.4.4-.2.9-.3,1.3-.5.4-.2.9-.4,1.4-.7.5-.3.9-.5,1.4-.8.5-.3,1-.6,1.5-.9.5-.3,1-.7,1.5-1,.5-.4,1-.8,1.4-1.2l.7-.6.7-.7c.5-.5.9-.9,1.4-1.4.5-.5.9-1,1.3-1.5l1.3-1.5c.4-.5.8-1.1,1.2-1.6.4-.5.8-1,1.1-1.5.4-.5.7-1.1,1-1.6.6-1.1,1.3-2,1.9-3,.5-1,1.1-1.9,1.5-2.8.5-.9.9-1.7,1.2-2.4.3-.7.6-1.4.9-1.9.5-1,.8-1.6.8-1.6,0,0-.2.6-.7,1.7-.2.5-.5,1.2-.8,1.9-.3.7-.6,1.6-1.1,2.5-.4.9-.9,1.8-1.4,2.9-.5,1-1.2,2-1.8,3.1-.3.5-.6,1.1-1,1.6-.4.5-.8,1-1.1,1.6-.4.5-.8,1.1-1.2,1.6l-1.3,1.5c-.4.5-.9,1-1.3,1.5-.5.5-1,.9-1.4,1.4l-.7.7-.8.6c-.5.4-1,.8-1.5,1.2-.5.4-1,.7-1.5,1-.5.3-1,.7-1.5.9-.5.3-1,.5-1.5.8-.5.2-1,.4-1.4.6-.5.2-.9.3-1.3.5-.4.1-.8.3-1.2.4-.8.2-1.5.3-2,.4-.6,0-1,.1-1.3.1-.3,0-.5,0-.5,0Z"/>
        <path class="st5" d="M159.6,256.7s.5-.3,1.3-.9c.4-.3.8-.7,1.3-1.1.5-.4,1.1-1,1.7-1.5.6-.6,1.2-1.2,1.8-2,.6-.7,1.3-1.5,1.9-2.3.7-.8,1.2-1.7,1.9-2.6.6-.9,1.2-1.9,1.7-2.8.5-1,1.1-1.9,1.6-2.9.5-1,1-1.9,1.4-2.9.4-1,.8-1.9,1.2-2.8.3-.9.6-1.7.9-2.5.3-.8.5-1.5.7-2.2.2-.6.4-1.2.5-1.7.3-.9.4-1.5.4-1.5,0,0-.1.5-.4,1.5-.1.5-.2,1.1-.4,1.7-.1.7-.4,1.4-.6,2.2-.3.8-.5,1.7-.8,2.6-.3.9-.7,1.8-1.1,2.8-.4,1-.9,1.9-1.3,2.9-.5,1-1,2-1.6,2.9-.6,1-1.2,1.9-1.8,2.8-.7.9-1.3,1.8-1.9,2.6-.6.8-1.3,1.6-2,2.3-.6.7-1.3,1.3-1.9,1.9-.6.6-1.2,1.1-1.8,1.5-.5.4-1,.8-1.4,1-.8.5-1.3.8-1.3.8Z"/>
        <path class="st5" d="M150.2,241s.9-1.2,1.9-3.2c.3-.5.5-1,.7-1.6.2-.6.5-1.2.7-1.9.5-1.3.8-2.7,1-4.2.2-.7.2-1.5.3-2.2,0-.7,0-1.4.1-2.1,0-.7,0-1.4,0-2,0-.6-.1-1.2-.1-1.8,0-.5,0-1.1-.2-1.5,0-.4-.1-.8-.2-1.1-.1-.6-.2-1-.2-1,0,0,.1.4.3,1,0,.3.2.7.3,1.1.1.4.2.9.3,1.5,0,.6.2,1.1.2,1.8,0,.6.1,1.3.1,2,0,.7,0,1.4,0,2.2,0,.7-.1,1.5-.3,2.2-.3,1.5-.7,2.9-1.1,4.2-.2.7-.5,1.3-.8,1.9-.3.6-.5,1.1-.8,1.6-.5,1-1.1,1.7-1.5,2.3-.4.5-.7.8-.7.8Z"/>
        <path class="st5" d="M120.9,248.1s.5.2,1.4.6c.9.4,2.2.9,3.8,1.5.8.3,1.7.6,2.6.9.9.3,1.9.6,2.9.8,1,.3,2.1.4,3.2.6,1.1.1,2.2.3,3.3.3,1.1.1,2.2,0,3.3,0,1.1-.1,2.2-.1,3.2-.4.5,0,1-.2,1.5-.3.5-.1,1-.2,1.4-.4.9-.2,1.8-.6,2.6-.8.8-.3,1.5-.6,2.1-.9.6-.2,1.2-.6,1.6-.8.9-.5,1.4-.7,1.4-.7,0,0-.5.3-1.3.8-.4.3-.9.6-1.5.9-.6.3-1.3.7-2.1,1-.8.3-1.6.7-2.6.9-.5.1-1,.3-1.4.4-.5.1-1,.2-1.5.3-1,.2-2.1.3-3.3.4-1.1,0-2.3,0-3.4,0-1.1,0-2.3-.2-3.4-.4-1.1-.2-2.2-.4-3.2-.7-1-.2-2-.6-2.9-.9-.9-.3-1.8-.6-2.6-1-.8-.3-1.5-.6-2.1-.9-.6-.3-1.2-.5-1.6-.8-.9-.5-1.4-.7-1.4-.7Z"/>
        <path class="st5" d="M128.2,228s.3,0,.8.2c.3,0,.6.1,1,.2.4,0,.8.2,1.3.2.5,0,1,.1,1.5.1.5,0,1.1,0,1.7,0,1.1-.1,2.3-.5,3.2-1.3.9-.8,1.4-1.9,1.7-3,.3-1.1.4-2.2.3-3.1,0-.9,0-1.7-.1-2.3,0-.5-.1-.9-.1-.9,0,0,.4,1.2.6,3.1,0,.9,0,2.1-.2,3.3-.3,1.2-.8,2.4-1.8,3.3-.5.5-1.1.8-1.7,1-.6.2-1.2.4-1.8.4-.6,0-1.2,0-1.7,0-.5,0-1.1-.1-1.5-.2-.5,0-.9-.2-1.3-.3-.4-.1-.7-.2-.9-.3-.5-.2-.8-.3-.8-.3Z"/>
        <path class="st5" d="M181.1,324.5s.4-1.4.9-3.8c.2-1.2.5-2.7.7-4.5.2-1.7.4-3.7.3-5.8,0-2.1-.2-4.5-1-6.8-.6-2.4-2.3-4.4-3.4-6.9-1.2-2.4-2.1-5.1-2.5-7.9-.4-2.8-.2-5.9,1.6-8.4,1.9-2.2,3.8-4.3,6-6.2,2.2-1.8,4.6-3.4,7.2-4.2l1-.3,1-.2c.6-.1,1.3-.3,1.9-.4,1.2-.3,2.4-.7,3.6-1.2,2.3-.9,4.3-2,6.2-3.1,3.7-2.2,6.6-4.3,8.6-5.9,2-1.5,3.1-2.5,3.1-2.5,0,0-1.1,1-3,2.6-2,1.6-4.8,3.8-8.5,6-1.8,1.1-3.9,2.2-6.2,3.2-1.1.5-2.4.9-3.6,1.3-.6.1-1.3.3-1.9.4l-1,.2-.9.3c-2.5.8-4.9,2.3-7,4.2-2.1,1.8-4.1,4-5.9,6.1-.8,1.1-1.3,2.5-1.5,3.8-.2,1.4-.2,2.8,0,4.2.4,2.8,1.3,5.4,2.5,7.8,1.1,2.4,2.7,4.6,3.4,7,.7,2.4.9,4.8.9,6.9,0,2.2-.2,4.1-.5,5.9-.2,1.7-.6,3.2-.8,4.5-.6,2.4-1,3.8-1,3.8Z"/>
        <path class="st5" d="M114.7,277.4s.8.2,2.3.5c1.4.3,3.5.6,6,.8,1.3.1,2.6.2,4.1.2,1.4,0,3,0,4.5-.1,1.6-.1,3.2-.3,4.8-.5,1.6-.2,3.3-.6,4.9-1,1.6-.4,3.2-.9,4.8-1.5,1.5-.6,3-1.2,4.4-1.9,1.4-.7,2.7-1.4,4-2.2.6-.4,1.2-.7,1.8-1.1.6-.4,1.1-.8,1.6-1.1,1-.8,1.9-1.5,2.7-2.1.8-.7,1.5-1.2,2-1.8,1.1-1,1.7-1.6,1.7-1.6,0,0-.6.6-1.6,1.7-.5.5-1.2,1.1-1.9,1.9-.7.7-1.6,1.4-2.6,2.2-.5.4-1,.8-1.6,1.2-.6.4-1.2.8-1.8,1.2-1.2.8-2.5,1.6-4,2.3-1.4.7-2.9,1.4-4.5,1.9-1.6.6-3.2,1.1-4.8,1.5-1.6.4-3.3.7-4.9,1-1.6.3-3.3.4-4.9.5-3.2.2-6.1,0-8.6-.2-2.5-.3-4.6-.7-6-1-1.4-.3-2.2-.6-2.2-.6Z"/>
      </g>
      <g>
        <path class="st13" d="M369.6,207.6c-4.4-2.7.6-12.5,4.8-19.4-2.9-.7-6-1.3-9.1-1.8-12,18-2.8,33.4-9.6,32.1-6.7-1.3-7.2-18.8-1-33.1-.7,0-1.3,0-1.8.1-3.5.5-9.9,1.9-16.9,5.2-11.8,23.2,14.2,25.8,5.9,30.6-7.7,4.4-17.1-7.5-20.3-20.9-1.2,1.1-2.3,2.3-3.5,3.5-4.4,4.9-7.5,11.4-9.5,18.1,2.7,2.6,6.9,5.8,12.9,8.3,11.6,4.7,2.3,9.7-15.4,2.7-1,6.2-1.1,11.8-.9,15.6,9.4,5,18.6,2.2,21.9-.3,3.9-3,9.9-9.3,11.8-7.2,1.9,2.1-1.2,5.1-7.4,12.1-5.1,5.7-7.4,15.9-3.6,24.1,1,.3,2,.4,3,.4,3.8-.2,7.5-.7,10.9-1.4,0-3.3-.1-8.3-.8-12.1-1.1-6.2,4.6-15.4,6.4-2,.7,5.7,1.9,9.3,3.1,11.7,7.4-2.6,14-6.3,19.6-10.9-2.7-1.3-6.3-3.1-10-5.3-7.5-4.6-4.2-8.5,3.1-2.8,3.8,3,8,4.1,11,4.5,3.4-3.2,6.4-6.8,9-10.6-6.8-2.3-17.7-6.6-20.2-11.1-3.7-6.6-.9-5.7,5.4-1,5.1,3.9,11.6,6.6,18.4,6.4,1.4-2.5,2.7-5.2,3.8-7.9-6.1-1-14.3-2.6-18.1-4.6-6.5-3.4-8.2-8-.9-4,6,3.3,13.1,3.7,21.6,1.4,3.9-12.7,4.4-26.2,1.6-38.1,0,0-5.4,3.5-11.2,1.2-1.1-.4-2.8-1-4.7-1.5-3.6,8.9-3.8,21.7-9.4,18.2Z"/>
        <path class="st5" d="M393.5,193s-.9,1.6-2.8,4.1c-.9,1.3-2.1,2.8-3.4,4.6-.7.9-1.4,1.8-2.2,2.7-.8.9-1.7,1.9-2.6,2.9-.9,1-1.9,2-3,3-1,1-2.1,2.1-3.3,3.1-1.1,1-2.4,2-3.7,3.1-1.3.9-2.6,2-4.1,2.9-.7.4-1.4.9-2.2,1.4-.8.4-1.5.8-2.3,1.2-1.5.8-3.1,1.7-4.6,2.6-3,1.9-5.9,4.1-8.6,6.4-1.4,1.1-2.8,2.3-4.1,3.5-1.3,1.2-2.7,2.4-4,3.6-2.6,2.4-5.1,4.9-7.5,7.3-2.4,2.4-4.6,4.8-6.7,7.1-2.1,2.3-4,4.5-5.8,6.5-.9,1-1.7,2-2.5,3-.8.9-1.5,1.8-2.2,2.7-1.4,1.7-2.5,3.2-3.5,4.5-.5.6-.8,1.2-1.2,1.7-.4.5-.6.9-.8,1.3-.4.7-.6,1.1-.6,1.1,0,0,.2-.4.6-1.1.2-.4.5-.8.8-1.3.3-.5.7-1.1,1.2-1.8.9-1.3,2-2.8,3.4-4.6,1.3-1.7,2.9-3.7,4.7-5.7,1.7-2.1,3.7-4.3,5.8-6.6,2.1-2.3,4.3-4.7,6.7-7.1,2.4-2.4,4.8-4.9,7.4-7.3,1.3-1.2,2.6-2.4,4-3.6,1.3-1.2,2.7-2.4,4.1-3.5,2.8-2.3,5.7-4.4,8.7-6.4,1.5-.9,3.1-1.7,4.6-2.6.8-.4,1.5-.8,2.3-1.2.7-.4,1.4-.9,2.2-1.3,1.5-.9,2.8-1.9,4.1-2.8,1.3-1,2.5-2,3.7-3,1.2-1,2.3-2,3.3-3.1,1.1-1,2-2,3-3,1.9-2,3.5-3.8,4.9-5.5,1.4-1.7,2.6-3.2,3.5-4.5,1.9-2.5,2.8-4.1,2.8-4.1Z"/>
        <path class="st5" d="M317.9,213.2s1.1,2,3.1,4.8c2,2.8,4.8,6.4,8.1,9.5.8.8,1.7,1.5,2.6,2.2.9.7,1.8,1.3,2.7,1.9,1.8,1.1,3.6,2,5.2,2.6.4.1.8.3,1.2.4.4.1.7.2,1.1.3.7.2,1.3.3,1.8.4,1,.1,1.6.2,1.6.2,0,0-.6,0-1.6-.1-.5,0-1.1-.1-1.8-.3-.3,0-.7-.2-1.1-.2-.4-.1-.8-.2-1.2-.4-1.6-.5-3.5-1.4-5.3-2.5-.9-.6-1.8-1.2-2.7-1.9-.9-.7-1.8-1.4-2.6-2.2-1.7-1.6-3.2-3.3-4.6-5-1.4-1.7-2.5-3.3-3.4-4.8-.9-1.4-1.6-2.7-2.1-3.6-.5-.9-.7-1.4-.7-1.4Z"/>
        <path class="st5" d="M350.6,230.8s0,.1,0,.4c0,.2,0,.6.2,1.1,0,.5.2,1,.4,1.6,0,.3.2.6.4,1,.1.3.3.7.4,1,.2.4.3.7.5,1.1.2.4.4.7.7,1.1.2.4.5.8.8,1.2.3.4.5.8.8,1.2.7.7,1.2,1.6,2,2.3.4.4.7.7,1.1,1.1.4.4.8.7,1.2,1l1.2,1c.4.3.8.6,1.3.9.4.3.8.6,1.2.9.4.3.9.5,1.3.8.9.5,1.6,1.1,2.4,1.5.8.4,1.6.8,2.3,1.2.7.4,1.4.7,1.9,1,.6.3,1.1.5,1.5.7.8.4,1.3.6,1.3.6,0,0-.5-.2-1.4-.5-.4-.2-1-.4-1.6-.6-.6-.2-1.3-.5-2-.9-.7-.4-1.5-.7-2.3-1.1-.8-.4-1.6-.9-2.5-1.4-.4-.3-.9-.5-1.3-.8-.4-.3-.8-.6-1.3-.9-.4-.3-.9-.6-1.3-.9l-1.2-1c-.4-.4-.8-.7-1.2-1.1-.4-.4-.7-.8-1.1-1.1-.8-.7-1.4-1.6-2-2.4-.3-.4-.6-.8-.8-1.2-.3-.4-.5-.8-.7-1.2-.2-.4-.4-.8-.6-1.2-.2-.4-.3-.8-.5-1.1-.3-.7-.5-1.4-.7-2.1-.2-.6-.3-1.2-.3-1.6-.1-.9,0-1.5,0-1.5Z"/>
        <path class="st5" d="M359.9,224s.2.4.7,1c.2.3.5.7.9,1.1.4.4.8.8,1.3,1.3.5.5,1,1,1.6,1.5.6.5,1.2,1,1.9,1.5.6.5,1.4,1,2.1,1.5.7.5,1.5.9,2.3,1.4.8.4,1.5.9,2.3,1.3.8.4,1.6.8,2.3,1.1.8.3,1.5.6,2.2.9.7.3,1.4.5,2,.7.6.2,1.2.4,1.7.6.5.2,1,.3,1.4.4.7.2,1.2.4,1.2.4,0,0-.4,0-1.2-.3-.4,0-.8-.2-1.4-.3-.5-.1-1.1-.3-1.8-.5-.6-.2-1.3-.4-2.1-.6-.7-.3-1.5-.6-2.3-.9-.8-.3-1.6-.7-2.4-1.1-.8-.4-1.6-.8-2.4-1.2-.8-.5-1.5-1-2.3-1.4-.7-.5-1.4-1-2.1-1.5-.7-.5-1.3-1.1-1.8-1.6-.6-.5-1.1-1.1-1.5-1.5-.9-1-1.6-1.9-2-2.6-.4-.7-.6-1.1-.6-1.1Z"/>
        <path class="st5" d="M372.4,216.4s1,.7,2.6,1.5c.8.4,1.8.8,2.8,1.1,1,.4,2.2.6,3.4.8.6.1,1.2.2,1.7.2.6,0,1.1,0,1.7,0,.6,0,1.1,0,1.6,0,.5,0,1,0,1.4-.1.4,0,.9,0,1.2-.1.4,0,.7-.1.9-.2.5,0,.8-.1.8-.1,0,0-.3,0-.8.2-.3,0-.6.2-.9.3-.3.1-.8.2-1.2.2-.4,0-.9.2-1.4.2-.5,0-1.1.1-1.6.1-.6,0-1.2,0-1.7,0-.6,0-1.2,0-1.8-.2-1.2-.2-2.4-.5-3.4-.9-.5-.2-1-.4-1.5-.6-.5-.2-.9-.4-1.3-.7-1.6-.9-2.4-1.8-2.4-1.8Z"/>
        <path class="st5" d="M366.7,192.9s-.2.4-.5,1.2c-.3.7-.7,1.8-1.2,3.1-.5,1.3-.9,2.8-1.3,4.4-.2.8-.3,1.7-.5,2.5,0,.9-.2,1.8-.2,2.7,0,.9,0,1.8,0,2.7,0,.9.1,1.7.3,2.6.1.8.3,1.6.5,2.4.2.8.5,1.4.7,2.1.2.6.5,1.2.7,1.7.2.5.4.9.6,1.3.4.7.6,1.1.6,1.1,0,0-.2-.4-.7-1.1-.2-.3-.5-.7-.7-1.2-.2-.5-.6-1-.8-1.7-.2-.6-.6-1.3-.8-2.1-.1-.4-.2-.8-.3-1.2-.1-.4-.2-.8-.3-1.2-.2-.8-.2-1.7-.3-2.6,0-.9,0-1.8,0-2.7,0-.9.2-1.8.3-2.7.2-.9.3-1.8.5-2.6.2-.8.5-1.6.7-2.4.3-.7.5-1.4.8-2.1.5-1.3,1-2.3,1.4-3,.4-.7.6-1.1.6-1.1Z"/>
        <path class="st5" d="M382.9,198.7s0,.2-.1.7c-.1.4-.2,1.1-.3,1.8,0,.4,0,.8-.1,1.2,0,.4,0,.9,0,1.3,0,.9.4,1.8,1.1,2.5.6.7,1.5,1.1,2.4,1.3.9.2,1.8.3,2.5.3,1.5,0,2.5-.2,2.5-.2,0,0-1,.4-2.5.5-.8,0-1.7,0-2.6-.1-.9-.2-2-.6-2.7-1.4-.7-.8-1.1-1.9-1.2-2.9,0-.5,0-1,0-1.4,0-.4.1-.9.2-1.2,0-.4.2-.7.3-1,0-.3.2-.6.3-.8.2-.4.3-.6.3-.6Z"/>
        <path class="st5" d="M305.4,241.5s1.1.3,3.1.7c1,.2,2.2.4,3.6.6,1.4.2,3,.3,4.7.2,1.7,0,3.6-.2,5.5-.8,1.9-.5,3.5-1.9,5.5-2.8,2-.9,4.1-1.7,6.4-2.1,2.3-.3,4.8-.2,6.8,1.2,1.8,1.5,3.5,3.1,5,4.8,1.5,1.7,2.7,3.7,3.4,5.8.2.5.3,1,.4,1.6.1.5.2,1,.3,1.5.3,1,.6,1.9,1,2.9.8,1.8,1.6,3.5,2.5,5,1.8,3,3.5,5.3,4.7,6.9,1.2,1.6,2,2.5,2,2.5,0,0-.8-.8-2.1-2.4-1.3-1.6-3.1-3.8-4.9-6.8-.9-1.5-1.8-3.1-2.6-5-.4-.9-.8-1.9-1-2.9-.1-.5-.2-1-.4-1.5-.1-.5-.2-1-.4-1.5-.7-2-1.9-3.9-3.4-5.6-1.5-1.7-3.2-3.2-4.9-4.7-1.8-1.3-4.2-1.5-6.4-1.2-2.2.3-4.3,1.1-6.3,2-1.9.9-3.7,2.2-5.6,2.7-1.9.6-3.8.7-5.6.7-1.7,0-3.3-.2-4.7-.4-1.4-.2-2.6-.5-3.6-.7-2-.5-3.1-.8-3.1-.8Z"/>
        <path class="st5" d="M343.1,187.9s-.2.7-.4,1.8c-.1.6-.2,1.3-.3,2.1,0,.8-.2,1.7-.3,2.7,0,.5,0,1-.1,1.6,0,.5,0,1.1,0,1.7,0,1.2,0,2.4.1,3.6,0,.6.1,1.3.2,1.9,0,.6.1,1.3.3,1.9.2,1.3.4,2.6.8,3.9.2.6.3,1.3.5,1.9.2.6.4,1.3.7,1.9.4,1.3,1,2.4,1.5,3.6.5,1.2,1.2,2.2,1.8,3.2.3.5.6,1,.9,1.4.3.4.6.9.9,1.3.6.8,1.1,1.6,1.7,2.2.6.6,1,1.1,1.4,1.6.8.9,1.3,1.4,1.3,1.4,0,0-.5-.5-1.3-1.3-.4-.4-.9-.9-1.5-1.5-.6-.6-1.1-1.3-1.8-2.1-.3-.4-.6-.8-1-1.2-.3-.4-.6-.9-.9-1.4-.6-1-1.3-2-1.8-3.2-.5-1.2-1.2-2.3-1.6-3.6-.2-.6-.5-1.3-.7-1.9-.2-.6-.4-1.3-.5-2-.4-1.3-.6-2.7-.8-4-.1-.7-.2-1.3-.2-2,0-.7-.1-1.3-.2-1.9,0-1.3-.1-2.5,0-3.7,0-.6,0-1.1,0-1.7,0-.5.1-1.1.1-1.6,0-1,.3-1.9.4-2.7.2-.8.3-1.5.4-2.1.3-1.2.5-1.8.5-1.8Z"/>
      </g>
      <g>
        <path class="st14" d="M64.3,328.3l2.4-6.8c-.7,2.1.3,4.9,3.2,7.5l-2.4,6.8c-2.9-2.7-4-5.4-3.2-7.5Z"/>
        <path class="st14" d="M454.2,381.8l-2.4,6.8c-.6,1.7-2.2,2.9-4.9,3.6l2.4-6.8c2.7-.6,4.3-1.9,4.9-3.6Z"/>
        <polygon class="st14" points="208.5 448.3 210.9 441.4 449.3 385.4 447 392.2 208.5 448.3"/>
        <polygon class="st14" points="67.5 335.8 69.9 329 190.4 435.4 188 442.3 67.5 335.8"/>
        <path class="st14" d="M188,442.3l2.4-6.8c5.2,4.7,14.4,7.4,20.5,6l-2.4,6.8c-6.1,1.4-15.3-1.3-20.5-6Z"/>
        <polygon class="st7" points="439.5 372.5 194 430.2 81.3 330.8 326.9 273.1 439.5 372.5"/>
        <path class="st12" d="M449.3,385.4l-238.4,56.1c-6.1,1.4-15.3-1.3-20.5-6l-120.5-106.5c-5.2-4.7-4.5-9.7,1.7-11.1l238.4-56.1c6.1-1.4,15.3,1.3,20.5,6l120.5,106.5c5.2,4.7,4.5,9.7-1.7,11.1ZM326.9,273.1l-245.6,57.7,112.6,99.3,245.6-57.7-112.6-99.3"/>
        <path class="st14" d="M314.1,414.2l37-8.4c2.4-.5,2.7-2.5.7-4.3-2-1.8-5.6-2.9-8-2.3l-37,8.4c-2.4.5-2.7,2.5-.6,4.3,2,1.8,5.6,2.9,8,2.4"/>
        <path class="st14" d="M207.5,288.4c-2.6.6-2.9,2.7-.7,4.7,2.2,2,6.1,3.1,8.7,2.5,2.6-.6,2.9-2.7.7-4.7-2.2-2-6.1-3.1-8.7-2.5"/>
      </g>
      <g>
        <path class="st13" d="M392.4,294.6c-3.8-4.9,8.2-14,17.5-20-3.2-1.9-6.7-3.9-10.2-5.7-25.6,15.6-23.4,36.8-31,32.6-7.6-4.2,2.2-24.3,18.5-38-.9-.3-1.7-.5-2.4-.6-4.6-.8-13.4-1.9-24.2-.9-28.5,21.5,2.3,35.1-10.8,37.1-12.2,1.9-16.7-15.5-12.7-32-2.1.8-4.3,1.6-6.4,2.6-8.5,3.8-16.1,10-22.5,16.7,1.8,4.1,5,9.4,11.1,14.6,11.6,10.1-2.9,12-20.7-3.2-4.9,6.6-8.4,12.9-10.4,17.3,8.7,9.5,21.8,10.1,27.4,8.6,6.6-1.8,17.8-6.6,18.9-3.4s-4.5,5.4-16.4,10.7c-9.8,4.4-18.7,15-18.8,25.9,1.1.7,2.3,1.3,3.5,1.7,4.9,1.3,9.7,2.2,14.4,2.8,2-3.8,4.8-9.5,6.2-14,2.4-7.5,15-15.6,9.1.3-2.5,6.7-3.2,11.4-3.1,14.6,10.8,0,21.1-1.5,30.8-4.4-2.6-2.5-6-6.1-9.2-10.1-6.6-8.2-.2-11.4,5.5-1.9,3,5,7.4,7.9,11,9.5,6.1-2.3,11.9-5.1,17.4-8.4-7-5.4-18-14.7-18.5-20.8-.6-9,2.3-6.8,7.3,1,4.1,6.5,10.5,12.2,19,14.8,3.3-2.3,6.4-4.8,9.4-7.4-7-3.6-16.2-8.8-19.7-12.6-6-6.5-5.4-12.5,1.3-4.9,5.5,6.2,14.1,9.6,26,10.3,12.4-12.9,21.1-27.9,24.7-42.7,0,0-8.8,1.8-14.7-3.2-1.1-1-2.8-2.2-4.9-3.6-9.8,8.7-17.7,23.1-22.5,16.9Z"/>
        <path class="st5" d="M430.7,287.8s-2.1,1.4-5.9,3.6c-1.9,1.1-4.3,2.4-7,3.8-1.4.7-2.8,1.4-4.4,2.2-1.6.7-3.2,1.5-4.9,2.2-1.7.7-3.5,1.5-5.5,2.2-1.9.8-3.9,1.5-5.9,2.2-1,.4-2.1.7-3.1,1-1.1.3-2.1.7-3.2,1-2.2.5-4.4,1.2-6.8,1.6-1.2.2-2.3.5-3.5.7-1.2.2-2.4.3-3.6.5-1.2.2-2.4.3-3.6.5-1.2.2-2.4.3-3.6.6-4.8,1-9.7,2.2-14.5,3.7-2.4.7-4.8,1.4-7.2,2.3-2.4.8-4.7,1.6-7.1,2.5-4.7,1.7-9.2,3.4-13.6,5.2-2.2.9-4.3,1.8-6.4,2.6-2.1.9-4.1,1.8-6.1,2.6-3.9,1.8-7.7,3.4-11.1,5.1-1.7.8-3.3,1.6-4.9,2.4-1.5.8-3,1.5-4.4,2.2-2.7,1.4-5.1,2.7-7,3.7-1,.5-1.8,1.1-2.5,1.5-.7.4-1.4.8-1.8,1.2-1,.7-1.5,1-1.5,1,0,0,.5-.4,1.5-1.1.5-.4,1.1-.8,1.8-1.2.7-.4,1.6-1,2.5-1.5,1.9-1.1,4.2-2.4,7-3.8,1.4-.7,2.8-1.5,4.3-2.2,1.5-.8,3.2-1.6,4.9-2.4,3.4-1.6,7.1-3.3,11.1-5.1,2-.9,4-1.8,6.1-2.7,2.1-.9,4.2-1.8,6.4-2.7,4.4-1.8,8.9-3.6,13.6-5.3,2.3-.9,4.7-1.7,7.1-2.5,2.4-.8,4.8-1.6,7.2-2.3,4.8-1.5,9.7-2.7,14.6-3.7,1.2-.3,2.4-.4,3.7-.6,1.2-.2,2.4-.3,3.6-.5,1.2-.2,2.4-.3,3.6-.5,1.2-.2,2.3-.4,3.5-.6,2.3-.4,4.6-1,6.8-1.6,1.1-.3,2.2-.6,3.2-.9,1.1-.3,2.1-.6,3.1-1,2-.7,4-1.4,5.9-2.1,1.9-.7,3.7-1.5,5.5-2.2,1.7-.7,3.4-1.5,4.9-2.2,1.6-.7,3-1.4,4.4-2.1,2.7-1.4,5.1-2.6,7-3.7,3.9-2.1,6-3.5,6-3.5Z"/>
        <path class="st5" d="M324.8,279.9s0,.7.2,1.9c.1,1.2.4,2.9.7,4.9.4,2,.9,4.4,1.6,6.8.4,1.2.8,2.5,1.3,3.8.5,1.3,1,2.5,1.6,3.8.6,1.2,1.2,2.4,1.9,3.6.7,1.1,1.4,2.2,2.3,3.2.4.5.8,1,1.2,1.4.4.5.8.9,1.2,1.3.4.4.8.8,1.2,1.2.4.4.8.7,1.2,1,.8.6,1.6,1.1,2.3,1.6.7.4,1.4.8,1.9,1.1,1.1.5,1.7.8,1.7.8,0,0-.6-.3-1.8-.7-.5-.3-1.2-.6-1.9-1-.7-.4-1.6-.9-2.4-1.5-.4-.3-.9-.6-1.3-1-.4-.4-.9-.7-1.3-1.1-.4-.4-.9-.8-1.3-1.3-.4-.5-.8-.9-1.2-1.5-.8-1-1.6-2.1-2.3-3.3-.7-1.2-1.4-2.4-2-3.6-.6-1.3-1.1-2.5-1.6-3.8-.5-1.3-.9-2.6-1.2-3.8-.7-2.5-1.2-4.9-1.5-6.9-.3-2-.4-3.8-.5-5,0-1.2,0-1.9,0-1.9Z"/>
        <path class="st5" d="M354.9,313.2s-.3.6-.6,1.6c-.1.5-.3,1.2-.4,2,0,.4-.1.8-.2,1.2,0,.4-.1.9-.1,1.4,0,.5,0,1,0,1.5,0,.5,0,1,.1,1.6,0,.3,0,.5,0,.8,0,.3.1.6.2.8.1.6.2,1.1.3,1.7.2.6.3,1.1.5,1.7s.2.6.3.9l.4.9c.2.6.5,1.2.7,1.7.2.6.6,1.1.9,1.7l.9,1.7c.3.5.7,1.1,1,1.6.3.5.7,1,1,1.6.4.5.8,1,1.1,1.4.4.5.7.9,1.1,1.4.2.2.3.5.5.7.2.2.4.4.6.6.7.8,1.4,1.6,2.1,2.3.6.7,1.3,1.3,1.8,1.9.6.5,1,1,1.5,1.4.8.8,1.3,1.2,1.3,1.2,0,0-.5-.4-1.3-1.2-.4-.4-.9-.8-1.5-1.3-.6-.5-1.3-1.1-1.9-1.8-.7-.7-1.4-1.4-2.2-2.2-.2-.2-.4-.4-.6-.6-.2-.2-.4-.4-.5-.7-.4-.5-.7-.9-1.1-1.4-.4-.5-.8-1-1.1-1.4-.3-.5-.7-1-1-1.6-.4-.5-.7-1.1-1.1-1.6l-.9-1.7c-.3-.6-.6-1.1-.9-1.7-.2-.6-.5-1.2-.7-1.8l-.4-.9c0-.3-.2-.6-.3-.9-.2-.6-.3-1.2-.5-1.8-.1-.6-.2-1.2-.3-1.8,0-.3,0-.6-.1-.9,0-.3,0-.6,0-.8,0-.6,0-1.1,0-1.6,0-.5,0-1,0-1.5,0-.5.1-.9.2-1.4,0-.4.1-.8.2-1.2.2-.8.4-1.4.5-2,.4-1.1.7-1.6.7-1.6Z"/>
        <path class="st5" d="M370.5,309.3s0,.5.3,1.5c.1.5.3,1,.5,1.6.2.6.5,1.3.8,2.1.3.7.7,1.5,1.1,2.4.4.8.9,1.7,1.4,2.5.5.9,1.1,1.7,1.7,2.6.7.8,1.3,1.7,2,2.5.7.8,1.4,1.6,2.2,2.4.8.7,1.5,1.5,2.2,2.2.8.7,1.5,1.3,2.2,1.9.7.6,1.4,1.1,2.1,1.6.6.5,1.2,1,1.8,1.3.5.4,1,.7,1.4,1,.8.5,1.2.9,1.2.9,0,0-.5-.3-1.3-.8-.4-.2-.9-.5-1.5-.9-.3-.2-.6-.4-.9-.6-.3-.2-.6-.4-.9-.7-.7-.5-1.4-1-2.1-1.5-.7-.6-1.5-1.2-2.3-1.9-.8-.6-1.5-1.4-2.3-2.2-.8-.7-1.5-1.6-2.2-2.4-.7-.8-1.3-1.7-2-2.5-.6-.9-1.2-1.8-1.7-2.6-.5-.9-1-1.7-1.4-2.6-.4-.8-.7-1.7-1-2.4-.3-.8-.5-1.5-.7-2.1-.2-.6-.3-1.2-.4-1.7-.2-.9-.2-1.5-.2-1.5Z"/>
        <path class="st5" d="M390.6,305.7s.2.3.6.9c.2.3.4.6.8.9.3.4.7.7,1.1,1.1.4.4.8.8,1.3,1.2.5.4,1,.8,1.6,1.3.6.4,1.2.8,1.8,1.2.6.4,1.3.7,2,1.1.7.3,1.4.6,2,.9.7.3,1.4.5,2,.7.7.2,1.3.4,2,.6.6.2,1.2.3,1.8.4.6.1,1.1.2,1.5.3.5,0,.9.1,1.2.2.7.1,1,.2,1,.2,0,0-.4,0-1,0-.3,0-.7,0-1.2,0-.5,0-1,0-1.5-.2-.6-.1-1.2-.2-1.8-.3-.6-.2-1.3-.3-2-.5-.7-.2-1.4-.5-2.1-.7-.7-.3-1.4-.6-2.1-.9-.7-.4-1.4-.7-2-1.1-.6-.4-1.3-.8-1.8-1.3-.6-.4-1.1-.9-1.6-1.3-.5-.5-.9-.9-1.3-1.3-.8-.8-1.3-1.6-1.7-2.2-.4-.6-.5-.9-.5-.9Z"/>
        <path class="st5" d="M397.5,276.7s-.4.4-1.2,1c-.8.7-1.9,1.6-3.1,2.8-1.3,1.2-2.7,2.7-4.1,4.3-.7.8-1.4,1.7-2.1,2.6-.4.4-.7.9-1,1.4-.3.5-.7.9-1,1.4l-.9,1.5c-.3.5-.5,1-.8,1.5-.3.5-.5,1-.7,1.5-.2.5-.4,1-.6,1.5-.3,1-.7,2-.9,3,0,.5-.2,1-.3,1.4,0,.5-.1.9-.2,1.3-.1.9-.1,1.7-.2,2.4,0,.7,0,1.3,0,1.8,0,1,0,1.6,0,1.6,0,0,0-.6-.2-1.6,0-.5-.1-1.1-.1-1.8,0-.7,0-1.5,0-2.4,0-.4,0-.9.1-1.4,0-.5.2-1,.3-1.4.2-1,.5-2,.8-3.1.2-.5.4-1,.6-1.6.2-.5.4-1.1.7-1.6.3-.5.5-1,.8-1.6l.9-1.5c.3-.5.7-1,1-1.5.3-.5.7-1,1-1.4.7-.9,1.4-1.8,2.2-2.6.7-.8,1.5-1.6,2.2-2.3.7-.7,1.4-1.3,2.1-1.9,1.3-1.2,2.5-2,3.3-2.7.8-.6,1.3-1,1.3-1Z"/>
        <path class="st5" d="M414.1,289.9s-.2.2-.6.7c-.2.2-.4.5-.6.8-.2.3-.5.6-.8,1-.3.4-.6.8-.8,1.3-.1.2-.3.5-.4.7-.1.3-.3.5-.4.8-.1.3-.2.5-.3.8,0,.3-.1.6-.2.9,0,.6,0,1.2.2,1.8.4,1.1,1.4,2,2.4,2.6,1,.6,2.1,1,3,1.3.9.3,1.7.5,2.2.6.6.1.9.2.9.2,0,0-1.3,0-3.2-.4-.9-.2-2.1-.6-3.1-1.2-.5-.3-1.1-.7-1.5-1.1-.5-.5-.9-1-1.1-1.7-.2-.6-.3-1.4-.2-2,0-.3,0-.7.2-1,0-.3.2-.6.3-.9.1-.3.3-.6.4-.8.1-.3.3-.5.5-.7.3-.5.6-.9.9-1.3.3-.4.6-.7.9-1,.3-.3.5-.5.7-.7.4-.4.6-.6.6-.6Z"/>
        <path class="st5" d="M292.4,307s1.2.8,3.4,2.1c2.2,1.2,5.4,2.9,9.6,4.2,2.1.6,4.4,1.2,6.8,1.4,2.5.2,5-.4,7.7-.7,2.7-.3,5.5-.5,8.4-.2,1.4.1,2.9.4,4.3.8,1.4.4,2.8,1,4,1.9.6.5,1.1,1,1.6,1.6.4.7.7,1.3,1,1.9.7,1.3,1.3,2.6,1.8,3.9,1,2.7,1.7,5.5,1.5,8.3,0,1.4-.4,2.7-.7,4-.1.6-.3,1.3-.5,1.9,0,.6-.2,1.2-.3,1.8-.3,2.5-.1,4.8,0,7,.4,4.3,1.2,7.9,1.8,10.3.6,2.5,1.1,3.8,1.1,3.8,0,0-.5-1.4-1.2-3.8-.3-1.2-.7-2.7-1.1-4.4-.4-1.7-.7-3.7-.9-5.9-.2-2.2-.4-4.5-.1-7,0-.6.2-1.3.3-1.9,0-.6.3-1.3.4-1.9.3-1.3.6-2.5.7-3.9.1-2.7-.5-5.4-1.5-8.1-.5-1.3-1.1-2.6-1.8-3.9-.3-.6-.6-1.3-1-1.9-.4-.6-.9-1.1-1.4-1.5-2.2-1.7-5.2-2.4-8-2.7-2.8-.3-5.6-.1-8.3.2-1.3.1-2.7.4-4,.5-1.3.2-2.6.2-3.9,0-2.5-.2-4.8-.8-6.9-1.5-2.1-.7-3.9-1.5-5.5-2.3-1.6-.8-2.9-1.5-4-2.2-2.2-1.3-3.3-2.2-3.3-2.2Z"/>
        <path class="st5" d="M371.1,261.5s-.6.6-1.5,1.8c-.9,1.2-2.1,2.8-3.5,5-1.4,2.1-2.8,4.7-4.1,7.5-.7,1.4-1.3,2.9-1.8,4.5-.5,1.6-1,3.1-1.4,4.8-.4,1.6-.7,3.3-.9,4.9-.1.8-.2,1.6-.2,2.4,0,.8,0,1.6,0,2.4,0,.8,0,1.5,0,2.3,0,.7.1,1.5.2,2.2,0,.7.2,1.4.3,2.1.1.7.3,1.3.4,1.9.1.6.3,1.2.4,1.7.2.5.3,1.1.4,1.6.3,1,.6,1.8.9,2.5.6,1.4.9,2.1.9,2.1,0,0-.4-.8-1-2.1-.3-.7-.6-1.5-1-2.5-.3-1-.7-2.1-1-3.3-.1-.6-.3-1.3-.4-1.9-.1-.7-.2-1.4-.3-2.1,0-.7-.1-1.5-.2-2.2,0-.8,0-1.5,0-2.3,0-.8,0-1.6,0-2.4,0-.8.1-1.6.2-2.5.2-1.6.5-3.3.9-4.9.4-1.6.9-3.2,1.5-4.8.6-1.5,1.2-3.1,1.9-4.5,1.3-2.9,2.9-5.4,4.3-7.5,1.4-2.1,2.7-3.7,3.7-4.8,1-1.1,1.5-1.7,1.5-1.7Z"/>
      </g>
      <g>
        <path class="st11" d="M229.5,371.5c-6.2-3.5-9.5-7.5-11.5-10.1.7.9,1.8,1.9,3.4,2.8,10.2,5.8,35.2,8.2,55.9,5.4,12-1.6,20-4.6,22.5-8,0,0-1.3,1.7-2.8,3.3-.6.6-1.6,1.6-3.5,3.2-1.7,1.4-4.1,3-6.1,4-2.5,1.3-4,1.9-5.5,2.4-1.8.7-3.4,1.1-5.1,1.6-2.3.6-6.7,1.4-10.9,1.8-4.9.4-7.8.3-11.1.2-.5,0-4.6-.2-9.1-1-6.2-1.1-11.6-2.9-16.1-5.5Z"/>
        <path class="st2" d="M311,310.6c.1-.2.2-.4.3-.6,0,0,0-.1.1-.2,0-.2.2-.4.3-.6,0-.2.2-.3.2-.5,0-.2.1-.3.2-.5,0,0,0,0,0,0,0,0,0,0,0,0,0,0,0,0,0,0,.2-.5.4-1.2.4-1.5,0,0,0,0,0,0,0-.3,0-.5.1-.8,0-.4,0-.8,0-1.5v-1c0-.4,0-1.7-.5-3.3-.5-1.7-1.3-2.9-1.5-3.2-.6-.8-.7-1-1.3-1.7-.4-.5-1.1-1.1-1.5-1.5-.4-.3-.9-.8-1.4-1.1-.7-.5-1.7-1.1-2.5-1.6-.9-.5-2-1.1-2.9-1.5-.7-.3-1.7-.8-2.5-1-3.3-1.2-5.3-1.7-7.9-2.4-1.5-.4-5-1.1-6.1-1.3-1-.2-2.3-.4-3.3-.5-2-.3-4.8-.6-6.8-.8-.9,0-8.9-.9-18.4-.7-4.1,0-10.6.3-18.6,1.3-2.8.4-8.2,1.2-13.6,2.7-6.4,1.8-9.7,3.7-10,3.9-1.7,1-2.3,1.4-4,2.7-.4.4-1.7,1.5-2.4,2.5-.6.8-.7.9-1,1.6-.5.8-.7,1.6-.7,1.6-.6,1.8-.7,2.6-.7,4,0,.1,0,.3,0,.4h0c0-.1,0-.3,0-.4v1c0,.3,0,.7,0,1,0,0,0,.1,0,.2,0,.3,0,.6.1.9,0,0,0,.2,0,.2,0,.3.1.6.2.9,0,0,0,.2,0,.2,0,.1,0,.3.1.4.2.5.4,1.1.7,1.6,0,.1.2.3.2.4,0,.2.2.3.3.5,0,0,.1.2.2.3,0,.1.1.2.2.3,0,.1.2.3.3.4-.4.5-.7.9-.8,1.1-.4.7-1,1.6-1.4,3.1-.4,1.4-.4,2.2-.5,3.3v1c0,.3,0,.7,0,1,0,0,0,.1,0,.2,0,.3,0,.6.1.9,0,0,0,.2,0,.3,0,.3.1.6.2.9,0,0,0,.2,0,.2,0,.1,0,.3.1.4,0,.3.2.6.3.9.2.4.5,1.1,1.2,2.1,0,0,0,.1.1.2,0,.1.2.3.3.4-.4.5-.7.9-.8,1.1-.4.7-1,1.6-1.4,3.1-.4,1.4-.4,2.2-.5,3.3,0,.1,0,.3,0,.4h0c0-.1,0-.3,0-.4v1h0c0,.2,0,.5,0,.8,0,.4,0,.8.2,1.3,0,.1,0,.2,0,.3,0,0,0,.1,0,.2,0,.4.2.8.3,1.1,0,0,0,0,0,0,0,0,0,0,0,.1,0,.2.1.3.2.5.1.3.2.6.4.9,0,0,0,0,0,0,0,0,.1.2.1.3.1.2.2.4.3.5,0,0,0,0,0,.1.1.2.3.4.4.6,0,0,0,0,0,0,0,0,0,0,0,0,.1.1.2.3.3.4-.3.4-.5.7-.7,1-.3.4-1,1.6-1.5,3.2-.4,1.4-.5,2.3-.5,3.3,0,.1,0,.3,0,.4h0c0-.1,0-.3,0-.4v1c0,.3,0,.6,0,1.1,0,.2,0,.4,0,.6,0,0,0,0,0,.1,0,.3,0,.5.2.8,0,0,0,.2,0,.2,0,.2.1.5.2.7h0s0,0,0,0c.2.5.4,1.1.7,1.7,0,0,0,0,0,0,0,.1.1.2.2.4,0,0,0,.1.1.2.2.4.5.8.8,1.3,0,0,0,.1.1.2,0,0,.3.4.8,1,0,0,0,0,0,0,.1.1.3.3.5.5,0,0,.1.1.2.2,0,0,0,0,.1.1.3.2.5.5.9.8,0,0,.1.1.2.2,0,0,0,0,0,0,.2.2.6.4.9.7.1,0,.2.2.3.2.1,0,.2.2.3.2.5.4,1.1.7,1.6,1,0,0,.1,0,.2.1,0,0,0,0,0,0,0,0,.2,0,.3.1.2.1.5.3.8.4.2.1.5.2.7.4.2,0,.4.2.6.3,0,0,.2,0,.3.1.8.4,1.7.7,2.5,1.1,0,0,0,0,.1,0,1.9.7,4.5,1.6,7.9,2.4.2,0,.5.1.8.2,1,.2,2.2.5,3.3.7.8.2,1.5.3,2,.4,2,.3,3.3.5,4.8.7,0,0,.1,0,.2,0,1.3.2,2.8.4,5,.6,0,0,0,0,0,0,0,0,0,0,0,0,0,0,0,0,0,0,.3,0,1.2.1,2.5.2,1.1,0,2.2.2,3.2.2,1.4,0,3.1.2,4.9.2,0,0,.1,0,.2,0,.7,0,1.9,0,3.4,0,1.3,0,2.7,0,4.1,0,2.8,0,4.6-.1,6.6-.2,1.5,0,3.1-.2,4.7-.3,1,0,2-.2,3.1-.3,0,0,.1,0,.2,0,0,0,.2,0,.2,0,2.4-.3,3.8-.5,3.9-.5.1,0,1.1-.1,2.5-.4,0,0,.1,0,.2,0,1.8-.3,4.3-.7,6.9-1.3,0,0,0,0,.1,0,0,0,.1,0,.2,0,1.5-.3,3-.7,4.5-1.2.2,0,.3,0,.5-.1.1,0,.3,0,.4-.1.9-.3,1.7-.5,2.3-.8,0,0,0,0,.1,0,1.2-.4,2.3-.9,3.3-1.3.7-.3,1.3-.6,1.8-.9,0,0,0,0,.1,0,.1,0,.9-.5,1.9-1.1,0,0,0,0,0,0,0,0,.7-.4,1.6-1.1,0,0,0,0,0,0,.2-.1.4-.3.5-.4,0,0,0,0,.1-.1,0,0,.1-.1.2-.2,0,0,0,0,0,0,.4-.3.9-.8,1.2-1.1.5-.6.7-.8,1-1.1.2-.2.3-.4.4-.6,0,0,0-.1.2-.2.2-.3.4-.7.7-1.1,0,0,0,0,0,0,0-.1.1-.3.2-.4.3-.6.5-1.1.6-1.4,0-.2,0-.3.1-.4.2-.6.2-.8.3-1.3,0,0,0,0,0,0,0,0,0,0,0-.2,0,0,0-.1,0-.2,0-.6.1-1.1.1-1.6,0-.3,0-.7,0-1,0-.9,0-1.2-.1-1.7,0-.3,0-.5-.1-.7,0,0,0-.1,0-.1-.1-.6-.2-.8-.5-1.6,0,0,0,0,0-.2,0,0,0,0,0,0,0,0,0,0,0-.1,0,0,0,0,0,0,0,0,0,0,0-.1,0,0,0,0,0,0,0,0,0-.1,0-.2,0,0,0,0,0,0,0,0,0-.1,0-.2,0,0,0,0,0-.1,0,0,0,0,0-.1,0,0,0-.1,0-.2,0,0,0,0,0,0,0,0,0,0,0,0,0,0,0,0,0,0-.2-.4-.3-.6-.6-.9-.1-.2-.2-.3-.4-.6,0,0,0,0,0,0,0,0,0,0,0,0,0,0,0,0,0,0,0,0,0,0,0-.1.1-.2.3-.4.4-.6,0,0,0,0,0-.1.4-.6.7-1.1,1-1.8.1-.2.2-.5.3-.7,0-.1.1-.3.2-.4,0,0,0,0,0-.1,0,0,0,0,0,0,0,0,0,0,0,0,.1-.4.3-1.1.4-1.5,0,0,0,0,0,0,0,0,0-.1,0-.2,0,0,0-.1,0-.2,0,0,0-.1,0-.2,0-.4,0-.8.1-1.6,0-.3,0-.7,0-1,0-.9,0-1.2-.1-1.6,0-.3-.1-.6-.2-.8,0,0,0-.1,0-.2,0-.3-.1-.6-.3-.9,0,0,0-.2,0-.2,0,0,0-.1,0-.2-.1-.3-.4-1.1-1-2.1,0,0-.1-.2-.2-.3,0,0-.1-.2-.2-.3,0-.1-.1-.2-.2-.3,0,0,0-.1-.1-.2,0,0,0,0,0,0,0,0,0,0,0,0,0,0-.1-.1-.2-.2,0-.1.2-.2.2-.3.2-.3.4-.5.6-.8.1-.2.2-.4.3-.6,0,0,0-.1.1-.2,0-.2.2-.4.3-.6,0-.2.1-.3.2-.5,0-.2.1-.3.2-.5,0,0,0,0,0-.1,0,0,0,0,0,0,0,0,0,0,0,0,.2-.5.4-1.2.4-1.5,0,0,0,0,0,0,0-.3,0-.5.1-.8,0-.4,0-.8,0-1.5,0-.3,0-.7,0-1,0-.9,0-1.2-.1-1.6,0-.3-.1-.6-.2-.8,0,0,0-.1,0-.2,0-.3-.1-.6-.3-.9,0,0,0-.2,0-.2,0,0,0-.1,0-.2-.1-.3-.4-1.1-1-2.1,0,0-.1-.2-.2-.3,0,0-.1-.2-.2-.3,0-.1-.1-.2-.2-.3s0-.1-.1-.2c0,0,0,0,0,0,0,0,0,0,0,0,0,0-.1-.1-.2-.2,0-.1.2-.2.2-.3.2-.3.4-.5.5-.8Z"/>
        <path class="st11" d="M307.7,272.1v11.5c0-2-1.6-4-5-6-11.8-6.7-41-9.5-65.1-6.3-17.2,2.3-27.2,7.1-27.2,12.1v-11.5c0-5,10-9.8,27.3-12.1,24.1-3.2,53.3-.4,65.1,6.3,3.4,1.9,5,4,5,6Z"/>
        <g>
          <path class="st11" d="M207.7,296.8v-13.3c0,2.1,1.7,4.3,5.3,6.3,12.5,7.1,43.2,10.1,68.6,6.6,18.2-2.4,28.7-7.5,28.7-12.7v13.3c0,5.3-10.6,10.3-28.7,12.7-25.4,3.4-56.2.4-68.6-6.6-3.6-2-5.3-4.2-5.2-6.3Z"/>
          <path class="st2" d="M305.1,277.4c12.5,7.1,2,15.6-23.5,19-25.4,3.4-56.2.4-68.6-6.6-12.5-7.1-2-15.6,23.5-19,25.4-3.4,56.2-.4,68.6,6.6Z"/>
          <path class="st11" d="M210.4,283.5v-11.5c0,2,1.6,4,5,6,11.8,6.7,41,9.5,65.1,6.3,17.2-2.3,27.2-7.1,27.2-12.1v11.5c0,5-10,9.8-27.3,12.1-24.1,3.2-53.3.4-65.1-6.3-3.4-1.9-5-4-5-6Z"/>
          <path class="st7" d="M356.5,154.7c-2.3-23-12.4-45.6-29.8-61.3-16-14.4-36.1-23.7-57.5-25.8-22.7-2.2-46.3,3.2-65.2,16.1-17.4,11.8-30.6,29-37.4,48.9-6.8,19.9-6.6,42.2.4,62.1,3.6,10.3,9.1,20.2,16.1,28.6,6.2,7.4,14.2,13.2,19.5,21.3,3,4.7,5.4,9.8,7.2,15.1.8,2.5,1.5,5.1,2,7.7.5,2.6.3,5.4.8,7.9.8,3.2,8,5.1,10.9,5.9,4.6,1.4,9.4,2.3,14.2,2.9,11.9,1.6,24,1.8,35.9.8,9.9-.9,22.3-1.9,30.6-7.9,1.7-1.2,1.2-3.5,1.4-5.5.3-2.9.9-5.7,1.7-8.5,1.5-5.4,3.7-10.6,6.5-15.4,5-8.6,12.7-14.4,19.2-21.7,13.2-14.9,21.6-34,23.4-53.9.5-5.8.6-11.7,0-17.4-.3-2.5.8,8.1,0,0Z"/>
          <path class="st7" d="M356.6,155.7s0,0,0,.1c0,0,0,0,0-.1Z"/>
          <path class="st7" d="M356.7,156.5c0,.1,0,.2,0,.3,0-.1,0-.2,0-.3Z"/>
          <path class="st7" d="M356.6,155.8c0,.3,0,.5,0,.7,0-.2,0-.5,0-.7Z"/>
          <path class="st7" d="M356.5,155c0,.2,0,.4,0,.6,0-.2,0-.4,0-.6Z"/>
          <path class="st7" d="M356.5,154.4c0,0,0,.2,0,.3h0c0-.1,0-.2,0-.3Z"/>
          <path class="st7" d="M356.5,154.4c0-.2,0-.2,0,0h0Z"/>
          <path class="st7" d="M356.5,154.7c0,0,0,.1,0,.2,0,0,0-.1,0-.2Z"/>
          <path class="st7" d="M356.5,154.9s0,0,0,0c0,0,0,0,0,0Z"/>
          <path class="st7" d="M356.8,157.4c0,0,0,.2,0,.2,0,0,0-.1,0-.2Z"/>
          <path class="st1" d="M192,191c-13.7-11.8-23.8-27.5-28.9-44.6-2.8,16.1-1.5,32.9,4,48.2,3.6,10.3,9.1,20.2,16.1,28.6,6.2,7.4,14.2,13.2,19.5,21.3,3,4.7,5.4,9.8,7.2,15.1.8,2.5,1.5,5.1,2,7.7.5,2.6.3,5.4.8,7.9.8,3.2,8,5.1,10.9,5.9,4.6,1.4,9.4,2.3,14.2,2.9,11.9,1.6,24,1.8,35.9.8,9.9-.9,22.3-1.9,30.6-7.9,1.7-1.2,1.2-3.5,1.4-5.5.3-2.9.9-5.7,1.7-8.5,1.5-5.4,3.7-10.6,6.5-15.4,5-8.6,12.7-14.4,19.2-21.7,9.7-10.9,16.8-24.1,20.6-38.2-16.6,5.2-32.8,12.9-48.6,21.2-37,20-82,10-113-18Z"/>
          <polygon class="st7" points="356.5 154.7 356.5 154.7 356.5 154.7 356.5 154.7"/>
          <path class="st7" d="M356.7,156.8c0,.3,0,.5,0,.6,0-.2,0-.4,0-.6Z"/>
          <path class="st7" d="M356.5,154.7s0,0,0,0h0s0,0,0,0Z"/>
          <path class="st7" d="M356.8,157.6s0,0,0,0c0,0,0,0,0,0Z"/>
          <path class="st7" d="M356.8,157.7s0,0,0,0h0Z"/>
        </g>
        <path class="st5" d="M208.2,342.7s1.6.5,4.4.9c2.8.5,6.9.9,11.9,1.3,2.5.2,5.1.3,8,.4,2.8,0,5.8,0,8.9,0,3.1,0,6.3-.2,9.5-.4,3.2-.2,6.5-.5,9.8-.9,3.3-.4,6.5-.9,9.7-1.5,3.2-.6,6.3-1.3,9.3-2,1.5-.4,2.9-.8,4.4-1.2,1.4-.4,2.8-.8,4.2-1.3,1.3-.5,2.6-.9,3.9-1.4,1.2-.5,2.4-.9,3.6-1.4,1.1-.5,2.2-1,3.3-1.4,1-.5,2-.9,2.9-1.4,1.8-.8,3.3-1.7,4.6-2.4,1.3-.7,2.2-1.3,2.9-1.7.7-.4,1-.6,1-.6,0,0-.3.2-1,.6-.7.4-1.6,1-2.8,1.8-1.3.7-2.7,1.6-4.6,2.5-.9.5-1.8,1-2.9,1.5-1,.5-2.1,1-3.2,1.5-1.1.5-2.3,1-3.6,1.5-1.2.5-2.6.9-3.9,1.4-1.3.5-2.7.9-4.2,1.4-1.4.4-2.9.8-4.4,1.2-3,.8-6.1,1.5-9.3,2.1-3.2.6-6.5,1.1-9.8,1.5-3.3.4-6.6.7-9.8.9-3.2.2-6.5.3-9.6.4-6.2,0-12-.2-16.9-.7-4.9-.4-9-1.1-11.9-1.6-2.8-.5-4.4-1.1-4.4-1.1Z"/>
        <path class="st5" d="M208.2,358.4s1.6.5,4.4.9c2.8.5,6.9.9,11.9,1.3,2.5.2,5.1.3,8,.4,2.8,0,5.8,0,8.9,0,3.1,0,6.3-.2,9.5-.4,3.2-.2,6.5-.5,9.8-.9,3.3-.4,6.5-.9,9.7-1.5,3.2-.6,6.3-1.3,9.3-2,1.5-.4,2.9-.8,4.4-1.2,1.4-.4,2.8-.8,4.2-1.3,1.3-.5,2.6-.9,3.9-1.4,1.2-.5,2.4-.9,3.6-1.4,1.1-.5,2.2-1,3.3-1.4,1-.5,2-.9,2.9-1.4,1.8-.8,3.3-1.7,4.6-2.4,1.3-.7,2.2-1.3,2.9-1.7.7-.4,1-.6,1-.6,0,0-.3.2-1,.6-.7.4-1.6,1-2.8,1.8-1.3.7-2.7,1.6-4.6,2.5-.9.5-1.8,1-2.9,1.5-1,.5-2.1,1-3.2,1.5-1.1.5-2.3,1-3.6,1.5-1.2.5-2.6.9-3.9,1.4-1.3.5-2.7.9-4.2,1.4-1.4.4-2.9.8-4.4,1.2-3,.8-6.1,1.5-9.3,2.1-3.2.6-6.5,1.1-9.8,1.5-3.3.4-6.6.7-9.8.9-3.2.2-6.5.3-9.6.4-6.2,0-12-.2-16.9-.7-4.9-.4-9-1.1-11.9-1.6-2.8-.5-4.4-1.1-4.4-1.1Z"/>
        <path class="st5" d="M208.2,326.8s1.6.5,4.4.9c2.8.5,6.9.9,11.9,1.3,2.5.2,5.1.3,8,.4,2.8,0,5.8,0,8.9,0,3.1,0,6.3-.2,9.5-.4,3.2-.2,6.5-.5,9.8-.9,3.3-.4,6.5-.9,9.7-1.5,3.2-.6,6.3-1.3,9.3-2,1.5-.4,2.9-.8,4.4-1.2,1.4-.4,2.8-.8,4.2-1.3,1.3-.5,2.6-.9,3.9-1.4,1.2-.5,2.4-.9,3.6-1.4,1.1-.5,2.2-1,3.3-1.4,1-.5,2-.9,2.9-1.4,1.8-.8,3.3-1.7,4.6-2.4,1.3-.7,2.2-1.3,2.9-1.7.7-.4,1-.6,1-.6,0,0-.3.2-1,.6-.7.4-1.6,1-2.8,1.8-1.3.7-2.7,1.6-4.6,2.5-.9.5-1.8,1-2.9,1.5-1,.5-2.1,1-3.2,1.5-1.1.5-2.3,1-3.6,1.5-1.2.5-2.6.9-3.9,1.4-1.3.5-2.7.9-4.2,1.4-1.4.4-2.9.8-4.4,1.2-3,.8-6.1,1.5-9.3,2.1-3.2.6-6.5,1.1-9.8,1.5-3.3.4-6.6.7-9.8.9-3.2.2-6.5.3-9.6.4-6.2,0-12-.2-16.9-.7-4.9-.4-9-1.1-11.9-1.6-2.8-.5-4.4-1.1-4.4-1.1Z"/>
        <path class="st5" d="M208.2,311.6s.2,0,.6.1c.4,0,.9.2,1.6.3,1.4.3,3.3.6,5.7.8,2.4.3,5.1.5,8.1.8,1.5.1,3,.2,4.6.3,1.6,0,3.2.1,4.7.2,1.6,0,3.2,0,4.7,0,1.6,0,3.1,0,4.6,0,1.5,0,2.9,0,4.3,0,1.4,0,2.7,0,3.9-.1,1.2,0,2.3-.1,3.3-.2,1,0,1.8-.1,2.5-.2,1.4,0,2.2-.1,2.2-.1,0,0-.8.1-2.2.3-1.4.2-3.4.4-5.7.6-1.2.1-2.5.2-3.9.3-1.4.1-2.8.2-4.3.2-1.5,0-3,0-4.6,0-1.6,0-3.2,0-4.8,0-1.6,0-3.2-.1-4.8-.2-1.6,0-3.1-.2-4.6-.3-1.5-.1-2.9-.3-4.3-.5-1.4-.2-2.6-.4-3.8-.6-1.2-.2-2.3-.4-3.2-.6-1-.2-1.8-.4-2.5-.6-.7-.2-1.2-.3-1.6-.5-.4-.1-.5-.2-.5-.2Z"/>
      </g>
      <g class="st17">
        <g>
          <path class="st13" d="M188.8,430.5s-57.6-27.2-51-69.5c29.8,8.3,52.4,38.8,52.4,38.8-29.9-55.4-2.7-96.7-2.7-96.7,0,0,31,27.1,24.4,85.1,5.5-28.8,30.6-72.6,51.6-79.1,6.9,25.8-25.6,79.1-25.6,79.1,0,0,27.6-30,48.3-37.3-2.8,36.1-37.6,58.2-37.6,58.2,0,0,28.1-15.9,52.1-12.9-8.8,17.8-53.3,33.3-53.3,33.3l-58.7,1.1Z"/>
          <path class="st5" d="M187.6,303.1s.8,7.7,2.1,19.4c1.2,11.6,3,27.1,5,42.5,1.9,15.5,4.1,30.9,6.3,42.3.3,1.4.5,2.8.8,4.1.3,1.3.5,2.5.8,3.7.3,1.2.5,2.2.8,3.2.2,1,.5,1.9.8,2.7.2.8.5,1.5.7,2.2.2.6.4,1.2.6,1.6.4.8.6,1.2.6,1.2,0,0-.2-.4-.7-1.2-.2-.4-.4-.9-.7-1.5-.3-.6-.5-1.3-.8-2.1-.3-.8-.6-1.7-.8-2.7-.3-1-.6-2.1-.8-3.2-.6-2.3-1.2-4.9-1.7-7.8-2.3-11.5-4.6-26.9-6.6-42.3-1.9-15.5-3.6-31-4.7-42.6-.6-5.8-1-10.7-1.3-14.1-.3-3.4-.5-5.3-.5-5.3Z"/>
          <path class="st5" d="M263.6,309.1s-3.2,6.2-8,15.4c-2.4,4.6-5.1,10.1-8.1,15.9-2.9,5.8-6,12.1-9,18.3-1.5,3.1-3.1,6.2-4.5,9.3-1.5,3.1-2.9,6.1-4.3,9.1-1.4,3-2.7,5.8-3.9,8.6-.6,1.4-1.2,2.7-1.8,4-.5,1.3-1.1,2.6-1.6,3.8-.5,1.2-1,2.4-1.4,3.5-.4,1.1-.8,2.2-1.2,3.1-.7,2-1.5,3.7-1.9,5.1-1,2.9-1.5,4.5-1.5,4.5,0,0,.5-1.7,1.4-4.6.4-1.5,1.1-3.2,1.8-5.2.4-1,.8-2.1,1.2-3.2.4-1.1.9-2.3,1.4-3.5.5-1.2,1-2.5,1.5-3.8.6-1.3,1.1-2.6,1.7-4,1.2-2.8,2.5-5.6,3.8-8.6,1.3-3,2.8-6,4.2-9.1,1.4-3.1,3-6.2,4.5-9.4,3.1-6.2,6.2-12.5,9.1-18.3,3-5.8,5.8-11.2,8.2-15.8,2.4-4.6,4.5-8.4,5.9-11.1,1.5-2.7,2.3-4.2,2.3-4.2Z"/>
          <path class="st5" d="M286.4,350.8s-.9,1-2.5,2.8c-1.6,1.8-3.8,4.4-6.5,7.5-2.7,3.1-5.9,6.6-9.3,10.4-3.4,3.8-7.1,7.8-10.9,11.8-3.8,4-7.5,7.9-11.1,11.6-1.8,1.8-3.5,3.6-5.2,5.2-1.7,1.6-3.3,3.2-4.8,4.6-1.5,1.4-2.9,2.7-4.1,3.8-1.3,1.1-2.3,2-3.3,2.8-1.9,1.5-3,2.3-3,2.3,0,0,1.1-.9,2.9-2.4.9-.8,2-1.8,3.2-2.9,1.3-1.1,2.6-2.4,4.1-3.8,1.5-1.4,3-3,4.7-4.6,1.7-1.6,3.4-3.4,5.2-5.3,3.6-3.7,7.3-7.6,11.1-11.6,3.7-4,7.5-8,10.9-11.7,3.5-3.8,6.7-7.3,9.5-10.3,5.5-6.1,9.2-10.1,9.2-10.1Z"/>
          <path class="st5" d="M300.9,396.1s-1,.5-2.6,1.5c-1.7,1-4.1,2.3-7,3.9-2.9,1.6-6.3,3.4-10,5.2-1.9.9-3.8,1.9-5.7,2.8s-3.9,1.9-5.9,2.8c-2,.9-4,1.8-6,2.7-2,.9-4,1.7-5.9,2.5-1.9.8-3.8,1.5-5.6,2.1-1.8.7-3.5,1.2-5,1.7-1.6.5-3,.9-4.3,1.3-1.3.4-2.4.7-3.4.8-1.9.4-3,.6-3,.6,0,0,1.1-.2,2.9-.7.9-.2,2.1-.5,3.3-.9,1.3-.4,2.7-.8,4.3-1.4,1.6-.5,3.3-1.1,5-1.8,1.8-.7,3.6-1.4,5.5-2.2,1.9-.8,3.9-1.6,5.8-2.5,2-.9,4-1.8,6-2.7,2-.9,4-1.9,5.9-2.8s3.9-1.9,5.7-2.8c3.7-1.8,7.1-3.6,10.1-5.1,2.9-1.5,5.4-2.8,7.1-3.7,1.7-.9,2.7-1.4,2.7-1.4Z"/>
          <path class="st5" d="M137.9,361s3.4,4,8.5,10c2.5,3,5.5,6.5,8.7,10.2,3.2,3.7,6.6,7.7,10,11.7,3.4,4,6.9,7.9,10.1,11.6,3.3,3.7,6.3,7.1,9,9.9,1.3,1.4,2.6,2.7,3.7,3.9,1.1,1.1,2.1,2.1,3,2.9.8.8,1.5,1.4,2,1.7.5.4.8.5.8.5,0,0-.3-.2-.8-.5-.5-.4-1.2-.9-2.1-1.7-.9-.7-1.9-1.7-3-2.8-1.2-1.1-2.4-2.4-3.8-3.8-2.7-2.8-5.9-6.2-9.1-9.8-3.3-3.7-6.7-7.6-10.2-11.5-3.4-4-6.8-8-10-11.7-3.2-3.8-6.1-7.3-8.6-10.3-2.5-3-4.5-5.6-6-7.4-1.4-1.8-2.3-2.8-2.3-2.8Z"/>
          <path class="st5" d="M190.3,399.8s.3.4.9,1.1c.5.7,1.3,1.7,2.1,3,.8,1.3,1.7,2.8,2.6,4.5.4.9.9,1.7,1.3,2.7.4.9.8,1.8,1.2,2.8.4.9.7,1.9,1,2.9.3.9.6,1.9.8,2.8.3.9.4,1.8.6,2.7,0,.4.2.8.2,1.2,0,.4.1.8.2,1.2,0,.8.2,1.4.2,2.1,0,.6,0,1.2,0,1.6,0,.9,0,1.4,0,1.4,0,0,0-.5-.2-1.4,0-.4-.1-1-.2-1.6,0-.6-.2-1.3-.3-2,0-.4-.1-.8-.2-1.2,0-.4-.2-.8-.3-1.2-.2-.8-.4-1.7-.7-2.6-.3-.9-.5-1.9-.8-2.8-.3-.9-.6-1.9-1-2.8-.3-1-.7-1.9-1.1-2.8-.4-.9-.8-1.8-1.2-2.6-.8-1.7-1.7-3.3-2.4-4.6-1.5-2.6-2.7-4.3-2.7-4.3Z"/>
          <path class="st5" d="M238,388.1s-.6.5-1.5,1.5c-.9,1-2.2,2.5-3.7,4.3-.7.9-1.5,1.9-2.3,2.9-.8,1-1.6,2.2-2.5,3.3-.8,1.2-1.7,2.4-2.5,3.7-.8,1.3-1.7,2.6-2.5,3.9-.4.7-.8,1.3-1.2,2-.4.7-.8,1.3-1.1,2-.4.7-.8,1.3-1.1,2-.3.7-.7,1.3-1,2-.3.6-.7,1.3-.9,1.9-.3.6-.6,1.3-.8,1.9-.3.6-.5,1.2-.8,1.8-.3.6-.4,1.1-.7,1.7-.4,1.1-.8,2.1-1.1,3-.3.9-.6,1.7-.8,2.3-.4,1.3-.7,2-.7,2,0,0,.2-.7.6-2.1.2-.7.4-1.5.7-2.4.3-.9.7-1.9,1-3,.2-.5.4-1.1.6-1.7.2-.6.5-1.2.8-1.8.3-.6.5-1.2.8-1.9.3-.6.6-1.3.9-1.9.3-.7.6-1.3,1-2,.3-.7.7-1.3,1.1-2,.4-.7.7-1.3,1.1-2,.4-.7.8-1.3,1.2-2,.8-1.3,1.7-2.6,2.5-3.9.8-1.3,1.8-2.5,2.6-3.7.9-1.2,1.7-2.3,2.6-3.3.8-1,1.6-2,2.4-2.9,1.5-1.8,2.9-3.1,3.8-4.1,1-1,1.5-1.5,1.5-1.5Z"/>
          <path class="st5" d="M213.2,382.9s-.2.7-.4,1.8c-.3,1.1-.6,2.8-1,4.8-.4,2-.8,4.3-1.2,6.8-.4,2.5-.8,5.1-1.1,7.8-.1,1.3-.3,2.7-.4,4,0,1.3-.2,2.6-.2,3.9,0,1.3-.1,2.5,0,3.6,0,1.2,0,2.2,0,3.2,0,1,0,1.9.1,2.7,0,.8.1,1.5.2,2.1.1,1.2.2,1.8.2,1.8,0,0-.1-.7-.3-1.8,0-.6-.2-1.3-.3-2.1,0-.8-.2-1.7-.2-2.7,0-1,0-2.1-.1-3.3,0-1.2,0-2.4,0-3.6,0-1.3.1-2.6.2-3.9,0-1.3.2-2.7.3-4,.3-2.7.7-5.3,1.1-7.8.4-2.5.9-4.8,1.4-6.8.9-3.9,1.8-6.5,1.8-6.5Z"/>
          <path class="st5" d="M252.8,406.9s-1.9,1.1-4.7,2.8c-1.4.8-3.1,1.8-4.9,2.8-1.8,1-3.7,2-5.6,3.1-1.9,1-3.9,2-5.7,3-1.8,1-3.5,1.8-5,2.5-2.9,1.5-4.9,2.4-4.9,2.4,0,0,1.9-1.1,4.8-2.7,2.9-1.6,6.7-3.7,10.5-5.7,1.9-1,3.8-2.1,5.6-3,1.8-1,3.5-1.9,4.9-2.6,2.9-1.5,4.8-2.5,4.8-2.5Z"/>
        </g>
      </g>
      <path class="st4" d="M76,162.5h121.4s-.8-25.3-18.1-12.7c-17.3,12.7-16.3-24.7-36.4-16.7-20.2,8-26.2-15.3-43.5-12-17.3,3.3-38.7,14-23.3,41.3Z"/>
      <path class="st4" d="M351.8,96.7h83.9s-5.2-17-19.9-14.7c-14.7,2.3-14.8-19.3-29.8-14-14.9,5.3-38.6-8.9-34.3,28.7Z"/>
      <g>
        <g class="st9">
          <polygon class="st10" points="43.8 296.3 42.3 295.5 42.5 200.5 43.9 201.3 43.8 296.3"/>
          <polygon class="st10" points="43.9 201.3 42.5 200.5 130.5 188.1 132 188.9 43.9 201.3"/>
        </g>
        <g>
          <polygon class="st2" points="132 188.9 131.8 283.9 43.8 296.3 43.9 201.3 132 188.9"/>
          <polygon class="st4" points="46.9 203.9 128.9 192.4 128.8 281.3 46.8 292.8 46.9 203.9"/>
        </g>
      </g>
      <g>
        <path class="st13" d="M126.9,311.9l-10.8-11c-7,4.9-8.7,12.8-8.7,12.8,0,0,6.1,7.7,8.7,15.9,6.1-6.2,10.8-17.7,10.8-17.7Z"/>
        <path class="st8" d="M117.7,304l-7.1-9c.3-3,0-5.4-.3-7-.7-3.8-2.1-5.6-3.2-10.5-.4-1.9-.6-3.5-.7-4.5-1.6-.1-4.8-.3-4.8-.3h0s-.3,16.1.9,21.5c1.2,5.4,8.1,18.9,8.1,18.9l7-9.1Z"/>
        <path class="st8" d="M106,274s2.6-2.8,2.3-6.7c-.4-3.6-1.8-1.7-2,1.2-1.1-5.4-1.5-7.4-2.2-7.4-1.1,0-.2,5.5-.2,5.5,0,0-1.3-5.4-2-5.3-1.2.2.3,5.4.3,5.4,0,0-1.1-4.3-1.8-4.1-1.1.4.5,4.5.5,4.5,0,0-1.5-3.6-2-3.4-1,.4.7,8.3,2.9,10"/>
        <g>
          <g class="st9">
            <polygon class="st1" points="88.5 276.6 65.7 264.2 65.8 224.7 88.6 237.1 88.5 276.6"/>
            <polygon class="st15" points="88.6 237.1 65.8 224.7 102.4 219.5 125.2 231.9 88.6 237.1"/>
            <polygon class="st7" points="125.2 231.9 125.1 271.4 88.5 276.6 88.6 237.1 125.2 231.9"/>
          </g>
          <path class="st5" d="M77.2,230.9s.6,0,1.6-.3c1-.2,2.4-.4,4.1-.7,1.7-.3,3.7-.6,5.8-.9,2.1-.3,4.4-.7,6.7-1,2.3-.3,4.5-.6,6.7-.9,2.1-.3,4.1-.5,5.8-.8,3.4-.4,5.7-.7,5.7-.7,0,0-2.3.4-5.7,1-1.7.3-3.7.6-5.8.9-2.1.3-4.4.7-6.7,1-2.3.3-4.5.6-6.7.9-2.1.3-4.1.5-5.8.8-1.7.2-3.1.4-4.1.5-1,.1-1.6.2-1.6.2Z"/>
          <path class="st5" d="M105.4,265.3c-2.4-1.9-4.8-3.7-7.2-5.6h.3c-2.3,2.7-4.7,5.4-7,8.1l-.2-.4,3.3-.6h.3c0,0,0,.3,0,.3v5.4s-.3-.3-.3-.3c2.5-.4,5-.8,7.6-1.2l-.2.2c0-1.8,0-3.6.1-5.4h0c0,0,0,0,0,0l3.3-.5ZM105.4,265.3l-3.3.6h0c0,1.7,0,3.5.1,5.3v.2s-.2,0-.2,0c-2.5.5-5,.9-7.5,1.3h-.3s0-.3,0-.3v-5.4s.3.3.3.3l-3.3.5h-.8c0,.1.5-.4.5-.4,2.4-2.7,4.7-5.4,7.1-8h.1c0-.1.1,0,.1,0,2.3,1.9,4.6,3.9,7,5.9Z"/>
        </g>
        <path class="st0" d="M134.8,443.2s.9,5.7.3,7.6c-.7,2.3-3.6,2.5-6.5,1.5-.8-.3-4.9-3-8.8-4.2-3.3-1-7.2-3.9-5.1-6.3,2.5-2.9,11.2,0,11.2,0l8.9,1.3Z"/>
        <path class="st16" d="M134.2,441.5s1.4,4.1-.3,4.7c-1.7.6-10.2.3-11.9-1.7s4.2-3,4.2-3h8Z"/>
        <path class="st0" d="M112.4,451.5s.9,5.7.3,7.6c-.7,2.3-3.6,2.5-6.5,1.5-.8-.3-4.9-3-8.8-4.2-3.3-1-7.2-3.9-5.1-6.3,2.5-2.9,11.2,0,11.2,0l8.9,1.3Z"/>
        <path class="st16" d="M112.7,451.2s.5,2.8-1.2,3.3-10.2.3-11.9-1.7,4.2-3,4.2-3l8.9,1.3Z"/>
        <path class="st4" d="M99.7,370s-3,33.2-2,40.2,3.6,41.8,3.6,41.8c0,0,8.9,4.6,12.6.9.3-18.4,0-41.2,0-41.2l3.4-21.6.3,20.1c0,2.6.3,5.3.8,7.9l4.7,25.3c6.3,3.8,12.5.9,12.5.9l-4.5-33.2s0-27.4-.3-35.4c-.3-8-1.7-12.4-1.7-12.4l-29.2,6.7Z"/>
        <path class="st13" d="M116.5,309.7c-3.1,0-6.5,0-9.5.9-6.3,1.9-11.2,7.6-10.3,23.7,1.3,23.9-.1,35-.1,35,5.2,5,29.1,3.8,34.8-3.8,1-18.1,0-41,0-45.3s-.7-10.3-14.9-10.6Z"/>
        <path class="st18" d="M98.4,305.9l-7.7-8.6c0-2.6-.5-4.8-1-6.5-1-3.5-2.1-5-3.3-8.6-.7-2.4-1.1-4.6-1.3-6.5h-4.8s.8,16.1,2.3,21.4c1.5,5.3,9.3,18.4,9.3,18.4l6.4-9.6Z"/>
        <path class="st18" d="M84.8,276.7s2.4-2.8,1.8-6.5c-.6-3.4-1.9-1.5-1.9,1.3-1.4-5.1-2-7-2.7-6.9-.7.1.4,5.7.4,5.7,0,0-1.6-5.8-2.6-5.4-1.1.4.9,5.6.9,5.6,0,0-1.5-4.7-2.3-4.2-1,.6,1,4.7,1,4.7,0,0-1.9-3.8-2.4-3.6-.8.3,1.2,7.8,3.5,9.4"/>
        <path class="st18" d="M111,310.4l1.3-4.4s-4.6,1.1-3.4-6.4,2-10.1,4.9-10.1c2.9,0,11.6-.6,10.4,7.2s-4.3,16.2-4.3,16.2c-.7.2-2.7.8-5,0-2.1-.6-3.4-1.9-3.9-2.5Z"/>
        <path class="st1" d="M119.4,306.9c-4.3-.9-5.9-3.9-5.2-7,.7-3.1-.8-5.4-2-.7-.8-.4-1.6-.4-1.6-.4l1.3-4.9s-5.1-3.2-1.9-7.4,7.3-.3,7.3-.3c5.8.5,8.3,1,9.8,5.5,1.5,4.5-.5,16.6-7.7,15.1Z"/>
        <path class="st13" d="M108.1,313.2l-11.5-10.3c-6.7,5.3-7.9,13.3-7.9,13.3,0,0,6.5,7.3,9.7,15.3,5.7-6.5,9.7-18.4,9.7-18.4Z"/>
      </g>
      <path class="st2" d="M391.1,293.4c-7.5-3.5-14.6-4.5-20.7,4.9-2.5,3.9-2.5,15.1-10.3,18.4s-5.3,12.9-4.3,16.7-12.4,29.8,9,32.7,36.1-5.1,32-22-6.9-21.6-3.3-24.9c3.5-3.3,11-19.6-2.3-25.9Z"/>
      <path class="st18" d="M423.4,438.5c.7-2.6-.9-6.6-.9-6.6l5.7-1.4s.5,3,2.2,7.9c.9,2.5,3.6,4,5.9,5.4-.4.4-1,.8-1.7,1.2-4.8,2.3-7.4-3-11.2-6.5Z"/>
      <path class="st13" d="M423.4,438.5c3.9,3.6,6.4,8.8,11.2,6.5.7-.4,1.3-.8,1.7-1.2,1.8,1.1,3.2,2.1,3.3,3.5.1,3-6.2,3.3-7.7,1.8-1.6-1.5-4.6-2.6-7.5-3.9-3.1-1.4-2.8-3.5-1.4-6,.1-.2.2-.5.3-.8Z"/>
      <path class="st0" d="M415.6,384.8c4.8,3.8,7.9,9.3,8.9,15.4,1.4,9,3.6,22.6,5.1,30.8-1.9,2.9-8.3,2.4-8.3,2.4,0,0-4.3-13.7-7-21.5s-3-14.1-3-14.1c0,0-6.6-2.4-27.1-8.5-13.2-3.9-13.5-14.4-11.6-24,23-3.9,36.9,14.6,43,19.5Z"/>
      <path class="st18" d="M406,445.6c1-2.5-.3-6.6-.3-6.6l5.8-.9s.2,3,1.5,8.1c.6,2.6,3.2,4.4,5.4,6-.5.4-1.1.7-1.8,1-5,1.8-7-3.7-10.6-7.6Z"/>
      <path class="st13" d="M406,445.6c3.5,3.9,5.6,9.4,10.6,7.6.8-.3,1.4-.6,1.8-1,1.7,1.2,3,2.4,2.9,3.8-.2,3-6.5,2.7-7.8,1.1-1.4-1.7-4.3-3-7.1-4.6-3-1.7-2.4-3.7-.8-6.1.2-.2.3-.5.4-.8Z"/>
      <path class="st18" d="M386.4,324c7.4,1.1,6.2,27.6,6.2,27.6l20.2,16.8-2.6,3.1s-21-9-23.4-13.9c-2.3-4.9-10.6-35.2-.5-33.6Z"/>
      <path class="st0" d="M389.5,362.6c1.9,3.1,4,5.5,4,5.5,0,0-4.1,6.3-10.2,8.8,6.2,2.1,14.2,9,19.9,14.4,4.4,4.3,7,10,7.4,16.1.6,9.1,1.5,22.8,2.2,31.2-2.2,2.8-8.5,1.7-8.5,1.7,0,0-3-14-5-22s-1.7-14.3-1.7-14.3c0,0-6.3-3-26.2-11-12.7-5.1-12.1-15.6-9.3-25,9.5,2.3,21.2,2.6,27.3-5.3Z"/>
      <path class="st4" d="M363,323.4c8.2-4.1,21.8,0,21.8,0,9.1,1.7,4.7,20.4,2.4,27.3-1.2,3.6.8,8.4,3,12.2-6.5,9-19,8.7-29.1,6.1,1.6-6,4-11.5,4.9-15.5,2.6-11-7.1-27.6-2.9-30.2Z"/>
      <path class="st18" d="M382.5,325l1.2-5.6c3.5,3.2,12.6-7.9,9.5-17.1-3-9.3-13-9-17.3-3s-.1,15.8-.8,17.4c-.7,1.6-2.8,6-2.8,6,0,0,.5,3.5,10.2,2.4Z"/>
      <path class="st18" d="M407,369.8s3.2,3.4,5.7,4.3c1.9,2.3,3.2,3.1,3.9,2.8.7-.3-3.2-3.6-3.2-3.6,0,0,3.9,3.3,5.5,3.1,1.6-.2-4.5-4.5-4.5-4.5,0,0,5.7,4.6,6.6,3.6.9-1.1-4.7-4.4-4.7-4.4,0,0,5.2,2.8,5.6,1.8s-7.4-4.4-7.4-4.4c0,0,4.2,1.5,4.1-.1s-8-1.4-9-1"/>
      <polygon class="st14" points="378.3 371.1 411.7 371.1 429.6 379.7 429.6 381.4 396.2 381.4 378.3 372.8 378.3 371.1"/>
      <polygon class="st12" points="396.2 379.7 429.6 379.7 411.7 371.1 378.3 371.1 396.2 379.7"/>
      <polygon class="st14" points="395.6 377.7 384.9 372.7 400.3 372.7 395.6 377.7"/>
      <polygon class="st14" points="395.9 379.7 429.2 379.7 429 353 426.3 352 394.7 352 394.8 378.7 395.9 379.7"/>
      <polygon class="st3" points="395.6 353 429 353 429.2 379.7 395.9 379.7 395.6 353"/>
      <path class="st18" d="M365.5,323.8c7,2.7,0,28.3,0,28.3l16,20.9-3.2,2.5s-18.6-13.4-19.7-18.7c-1.2-5.3-2.6-36.6,7-32.9Z"/>
      <path class="st2" d="M386.4,290.3c8.4.6,17.2,12.5,7.5,13.5s-15.9-1.8-15.7,6.4c.2,8.1.2,20.3-5.6,22.1s-13.8-3.3-13.4-6.9,8.2-5.8,9.6-12.5-2.9-23.9,17.6-22.5Z"/>
      <path class="st18" d="M377.3,374.7s3.2,3.4,5.7,4.3c1.9,2.3,3.2,3.1,3.9,2.8.7-.3-3.2-3.6-3.2-3.6,0,0,3.9,3.3,5.5,3.1,1.6-.2-4.5-4.5-4.5-4.5,0,0,5.7,4.6,6.6,3.6.9-1.1-4.7-4.4-4.7-4.4,0,0,5.2,2.8,5.6,1.8s-7.4-4.4-7.4-4.4c0,0,4.2,1.5,4.1-.1s-8-1.4-9-1"/>
      <path class="st5" d="M94.8,324.6s.3.4.8,1c.3.3.6.7,1,1,.4.4.9.7,1.5,1.1.3.2.6.3.9.4.3,0,.7.2,1.1.2.8,0,1.5-.3,2.2-.6.3-.2.6-.5,1-.8.3-.3.6-.7.8-1,.5-.7,1-1.5,1.4-2.3.5-.8.8-1.6,1.1-2.5.1-.4.2-.8.3-1.3,0-.4.1-.8.2-1.3,0-.8.1-1.6,0-2.4,0-.8-.2-1.5-.4-2.1-.2-.6-.4-1.2-.7-1.7-.3-.5-.5-.9-.7-1.2-.4-.7-.8-1-.8-1,0,0,.4.3.9.9.2.3.5.7.8,1.2.1.2.3.5.4.8.1.3.3.6.4.9.2.7.4,1.4.5,2.2.1.8.1,1.6,0,2.5,0,.4-.1.9-.2,1.3-.1.4-.2.9-.3,1.3-.3.9-.6,1.8-1.1,2.6-.4.8-.9,1.6-1.5,2.4-.3.3-.6.7-.9,1-.4.3-.7.6-1.1.8-.8.4-1.7.7-2.5.6-.4,0-.8-.2-1.2-.2-.3-.2-.7-.3-1-.5-.6-.4-1.1-.8-1.5-1.2-.4-.4-.7-.8-.9-1.1-.5-.6-.7-1-.7-1Z"/>
      <path class="st5" d="M117.1,390.1s.7-.2,1.6-.5c.5-.1,1.1-.4,1.7-.6.6-.2,1.2-.4,1.9-.7,1.3-.5,2.5-1.1,3.3-1.6.2-.1.4-.3.6-.4.2-.1.3-.2.4-.3.2-.2.4-.3.4-.3,0,0,0,.1-.3.4,0,.1-.2.3-.3.4-.2.1-.3.3-.5.5-.2.2-.4.4-.7.5-.3.2-.5.4-.8.5-.6.3-1.2.6-1.8.9-1.3.5-2.6.9-3.7,1-1,.2-1.7.2-1.7.2Z"/>
      <path class="st5" d="M104.2,372.3s-.7,5.1-1.3,12.7c-.2,1.9-.3,4-.4,6.1,0,1.1,0,2.2,0,3.4,0,.6,0,1.1,0,1.7,0,.6,0,1.1.2,1.7.4,2.3,1.2,4.7,1.8,7.1.7,2.4,1.4,4.9,1.7,7.4.2,1.3.2,2.6.1,3.9,0,1.3-.2,2.5-.3,3.8-.2,2.5-.4,5-.6,7.3-.4,4.8-.7,9.2-.9,13-.2,3.8-.4,7-.4,9.2,0,1.1,0,2,0,2.6,0,.6,0,.9,0,.9,0,0,0-.3,0-.9,0-.6,0-1.5,0-2.6,0-2.2,0-5.4.2-9.2.2-3.8.4-8.3.7-13,.2-2.4.4-4.8.6-7.3.2-2.5.5-5,.1-7.5-.3-2.5-1-5-1.6-7.4-.7-2.4-1.4-4.8-1.8-7.2-.1-.6-.2-1.2-.2-1.8,0-.6,0-1.2,0-1.8,0-1.2,0-2.3.1-3.4.1-2.2.3-4.3.5-6.2.4-3.8.8-7,1.2-9.2.3-2.2.5-3.5.5-3.5Z"/>
      <path class="st5" d="M380.4,300s-.4.3-1.1.9c-.7.6-1.5,1.5-2.3,2.8-.4.6-.8,1.4-.9,2.2-.2.8-.2,1.7,0,2.6.4,1.9.6,3.9.7,5.9,0,2,0,4.1-.3,6-.3,1.9-.9,3.6-1.7,4.9-.4.7-.9,1.2-1.4,1.6-.5.4-1,.6-1.4.8-.4.1-.8.2-1,.2-.2,0-.4,0-.4,0,0,0,.1,0,.4,0,.2,0,.6-.1,1-.3.4-.2.9-.4,1.3-.8.5-.4.9-.9,1.3-1.6.8-1.3,1.2-3,1.5-4.8.3-1.8.3-3.9.2-5.9,0-2-.3-4-.7-5.8-.2-1,0-1.9.2-2.8.2-.9.7-1.6,1.1-2.2.9-1.3,1.8-2.1,2.5-2.7.7-.5,1.1-.8,1.1-.8Z"/>
      <path class="st5" d="M383.1,295.1s-.6,0-1.6.2c-1,.2-2.5.4-4.1,1.1-.8.4-1.6.9-2.2,1.6-.6.7-1,1.7-1.2,2.8-.2,1.1-.2,2.2-.2,3.3,0,1.2-.2,2.3-.4,3.5-.8,4.7-2.3,9.2-4.3,12.2-1,1.5-2.2,2.5-3.2,2.8-.5.2-.9.2-1.2.2-.3,0-.4,0-.4,0h.4c.3,0,.7,0,1.1-.3,1-.4,2-1.4,3-2.9.9-1.5,1.7-3.4,2.4-5.4.7-2.1,1.2-4.4,1.6-6.7.2-1.1.3-2.3.4-3.4,0-1.1,0-2.3.3-3.4.2-1.1.7-2.1,1.4-2.9.7-.8,1.6-1.3,2.4-1.6.8-.3,1.6-.5,2.3-.6.7-.1,1.3-.2,1.8-.3,1-.1,1.6-.2,1.6-.2Z"/>
      <path class="st5" d="M384.9,301s.8-.2,2-.5c.6-.2,1.3-.4,2-.6.7-.2,1.5-.5,2.2-.8.7-.3,1.5-.7,2-1.2.3-.3.5-.5.6-.8.1-.3,0-.6,0-.9-.1-.3-.3-.5-.4-.7-.2-.2-.3-.4-.4-.5-.3-.2-.4-.4-.4-.4,0,0,.2.1.5.3.1.1.3.3.5.4.2.2.4.4.5.7.1.3.3.7.2,1.1,0,.4-.3.8-.6,1.1-.6.6-1.4,1-2.1,1.3-1.6.7-3.2,1-4.4,1.2-1.2.2-2.1.2-2.1.2Z"/>
      <path class="st5" d="M396.7,305.7s0,.1.2.4c0,.3.2.7.2,1.1,0,.2,0,.5,0,.8,0,.3,0,.6,0,.9,0,.6-.3,1.2-.5,1.8-.2.6-.5,1.2-.8,1.7-.3.5-.6,1-.9,1.4-.3.4-.5.7-.7.9-.2.2-.3.3-.3.3,0,0,.3-.6.7-1.4.2-.4.5-.9.7-1.4.3-.5.5-1.1.7-1.7.2-.6.4-1.2.5-1.7.1-.6.2-1.1.2-1.5,0-.5,0-.8,0-1.1,0-.3,0-.4,0-.4Z"/>
      <path class="st5" d="M369.6,311.2s-.8.7-1.9,1.7c-.6.5-1.2,1.2-1.9,1.8-.7.7-1.4,1.4-2,2.2-1.3,1.5-2.4,3.3-2.5,4.8,0,.4,0,.7,0,1,0,.3.2.5.3.7,0,.2.2.3.3.4,0,0,.1.2.1.2,0,0,0,0-.1-.1,0,0-.2-.2-.3-.4-.1-.2-.3-.4-.4-.7,0-.2,0-.3-.1-.5,0-.2,0-.4,0-.6,0-.8.3-1.7.7-2.6.4-.9,1.1-1.7,1.7-2.6.7-.8,1.4-1.5,2.1-2.2.7-.7,1.4-1.2,2-1.7,1.2-1,2.1-1.5,2.1-1.5Z"/>
    </g>
  </g>
</svg>