<?xml version="1.0" encoding="UTF-8"?>
<svg id="Capa_2" data-name="Capa 2" xmlns="http://www.w3.org/2000/svg" viewBox="0 0 2404.97 1722.85">
  <defs>
    <style>
      .cls-1 {
        fill: #1f4d84;
      }

      .cls-2 {
        fill: #ed7d2b;
      }

      .cls-3 {
        fill: #2b478b;
      }

      .cls-4 {
        fill: #e8945b;
      }

      .cls-5 {
        fill: #233862;
      }

      .cls-6 {
        fill: #9fb1ff;
      }

      .cls-7 {
        fill: #8c9df4;
      }

      .cls-8 {
        fill: #ed975d;
      }

      .cls-9 {
        fill: #fff;
      }

      .cls-10 {
        fill: #182d4c;
      }

      .cls-11 {
        fill: #b3cff9;
      }

      .cls-12 {
        fill: #f4904d;
      }

      .cls-13 {
        opacity: .8;
      }

      .cls-14 {
        fill: #6980e2;
      }

      .cls-15 {
        fill: #ebf3fa;
      }

      .cls-16 {
        fill: #163560;
      }

      .cls-17 {
        fill: #ffb27d;
      }

      .cls-18 {
        fill: #fca56b;
      }

      .cls-19 {
        fill: #f2ccaa;
      }

      .cls-20 {
        fill: #afcdfb;
      }

      .cls-21 {
        fill: #f3faff;
      }

      .cls-22 {
        fill: #bbd0ff;
      }

      .cls-23 {
        fill: #d2e0ff;
      }

      .cls-24 {
        fill: #a8d29f;
      }

      .cls-25 {
        fill: #ef873a;
      }

      .cls-26 {
        fill: #1c4b8e;
      }

      .cls-27 {
        fill: #f99746;
      }

      .cls-28 {
        fill: #739af0;
      }

      .cls-29 {
        fill: #ffa561;
      }

      .cls-30 {
        opacity: .5;
      }

      .cls-31 {
        fill: #aec3ff;
      }
    </style>
  </defs>
  <g id="_лой_1" data-name="‘лой_1">
    <g>
      <path class="cls-15" d="M213.26,1716.9s-406.19-346.83-97.41-675.55C444.61,691.38,153.34,242.08,599.61,60.8c482.48-195.99,606.61,149.2,808.6,96.2,402.87-105.72,913.87-53.66,828.85,459.86-106.73,644.62,331.16,562.4,71.08,1102.2l-2094.87-2.15Z"/>
      <g>
        <path class="cls-23" d="M1408.21,672.34s67.42-285.75,294.85-317.16c0,0,44.25-5.43,58.99,43.29,14.74,48.73-73.25,49.08-127.63,68.68-54.38,19.6-181.17,102.69-226.21,205.19Z"/>
        <path class="cls-23" d="M1403.04,618.86s-23.64-236.69,142.33-320.69c0,0,32.47-15.82,56.6,17.62,24.13,33.45-43.19,56.9-79.69,86.25-36.5,29.35-111.75,126.42-119.24,216.82Z"/>
      </g>
      <g class="cls-13">
        <path class="cls-31" d="M891.61,839.76s97.55-54.63,52.03-128.77c0,0-36.42-45.52-75.44-57.23,0,0,20.81,110.56,0,113.16-20.81,2.6-14.31-124.86-14.31-124.86,0,0-102.75-49.42-143.07-45.52,0,0,63.73,107.95,42.92,105.35-20.81-2.6-92.35-111.86-92.35-111.86,0,0-105.35-19.51-122.26,42.92-16.91,62.43,10.41,93.65,26.01,97.55,15.61,3.9,115.76,2.6,113.16,15.61-2.6,13.01-70.24,33.82-107.95,22.11,0,0,41.62,102.75,96.25,97.55,54.63-5.2,71.54-39.02,105.35-41.62,33.82-2.6,58.53,6.5,41.62,15.61-16.91,9.1-74.14,2.98-101.45,26.2-27.31,23.22-49.43,37.53,1.3,47.93,50.73,10.41,141.77,3.9,159.98-35.12l18.21-39.02Z"/>
        <g>
          <path class="cls-31" d="M587.25,652.47s273.14,88.45,304.36,187.3c0,0-1.3,44.22,26.01,94.95v19.51s-28.61-66.33-44.22-75.44c0,0,61.13-85.84-286.15-226.32Z"/>
          <path class="cls-31" d="M917.62,934.71s42.12,63.97,18.11,141.83l-10.84-2.91s10.52-85.76-11.52-128.89c-22.04-43.13,4.25-10.02,4.25-10.02Z"/>
        </g>
      </g>
      <g class="cls-30">
        <path class="cls-23" d="M945.8,1280.81s63.9-191.45-86.95-235.15c0,0-103.93-16.55-170.26,15.22,0,0,162.09,122.35,137.46,151.11-24.63,28.75-170.79-149.36-170.79-149.36,0,0-197.25,58.82-246.36,113.01,0,0,216.25,66.74,185.3,88.54-30.95,21.81-259.2-37.19-259.2-37.19,0,0-164.39,101.93-111.12,205.84,53.26,103.91,127.66,112.41,153.24,98.66,25.58-13.75,157.74-137.15,170.07-116.62,12.33,20.53-52.71,130.48-117.3,160.67,0,0,180.4,86.65,247.03,13.34,66.63-73.31,48.13-139.01,90.12-183.56,42-44.55,86.06-62.42,74.54-29.72-11.52,32.7-95.38,94.05-103.64,158.23-8.27,64.19-20.41,110.16,59.97,62.43,80.38-47.73,194.06-167.01,170.97-241.24l-23.08-74.23Z"/>
        <path class="cls-23" d="M311.85,1400.43s472.18-213.7,633.95-119.62c0,0,54.99,67.42,23.08,74.23,0,0-22.65-188.89-657.04,45.39Z"/>
      </g>
      <g>
        <path class="cls-22" d="M1644.09,1301.27s18.83-114.5,107.26-96.28c0,0,57.29,19.45,82.51,53.39,0,0-115.24,18.77-110.42,40,4.82,21.23,126.9-30.17,126.9-30.17,0,0,84.55,82.8,94.99,123.52,0,0-127.87-24.03-117.98-4.64,9.89,19.39,141.79,50.58,141.79,50.58,0,0,56.28,95.91,1.33,134.48-54.95,38.57-95.06,22.95-104.39,9.1-9.32-13.85-43.46-112.04-55.23-104.9-11.77,7.14-8.17,80.49,16.58,113.16,0,0-114.98-4.3-129.21-59.44-14.23-55.15,12.79-83.6,3.38-117.52-9.41-33.92-27.03-54.82-29.94-35.1-2.91,19.72,23.29,73.4,10.29,108.26-13,34.86-19.15,61.5-47.23,15.67-28.08-45.82-53.92-136.96-22.28-168.53l31.64-31.56Z"/>
        <g>
          <path class="cls-22" d="M1934.44,1532.06s-182.85-235.27-290.34-230.79c0,0-42.69,16.9-101.85,8.18l-19.04,6.9s74.84,4.48,89.25,16.49c0,0,62.16-90,321.98,199.23Z"/>
          <path class="cls-22" d="M1542.25,1309.44s-77.31-18.5-144.8,32.46l6.67,9.55s79.97-40.58,129.85-34.32c49.88,6.26,8.28-7.69,8.28-7.69Z"/>
        </g>
      </g>
      <g>
        <path class="cls-23" d="M1609.72,827.06s-119.24-66.78-63.6-157.4c0,0,44.52-55.65,92.21-69.96,0,0-25.44,135.14,0,138.32,25.44,3.18,17.49-152.63,17.49-152.63,0,0,125.6-60.42,174.89-55.65,0,0-77.91,131.96-52.47,128.78,25.44-3.18,112.88-136.73,112.88-136.73,0,0,128.78-23.85,149.45,52.47,20.67,76.32-12.72,114.47-31.8,119.24-19.08,4.77-141.5,3.18-138.32,19.08,3.18,15.9,85.85,41.34,131.96,27.03,0,0-50.88,125.6-117.65,119.24-66.78-6.36-87.44-47.7-128.78-50.88-41.34-3.18-71.55,7.95-50.88,19.08,20.67,11.13,90.62,3.65,124.01,32.03,33.39,28.38,60.42,45.87-1.59,58.59-62.01,12.72-173.3,4.77-195.56-42.93l-22.26-47.7Z"/>
        <g>
          <path class="cls-23" d="M1981.76,598.11s-333.88,108.11-372.04,228.95c0,0,1.59,54.06-31.8,116.06v23.85s34.98-81.08,54.06-92.21c0,0-74.72-104.93,349.78-276.64Z"/>
          <path class="cls-23" d="M1577.93,943.12s-51.49,78.19-22.13,173.37l13.25-3.56s-12.86-104.83,14.08-157.56c26.94-52.73-5.19-12.25-5.19-12.25Z"/>
        </g>
      </g>
      <g>
        <g>
          <rect class="cls-28" x="809.88" y="496.4" width="891.29" height="1218.86"/>
          <rect class="cls-21" x="847.86" y="529.29" width="815.34" height="1152.38"/>
          <path class="cls-3" d="M1086.49,496.4v41.52c0,22.93,18.57,41.52,41.48,41.52h222.81c22.91,0,41.48-18.59,41.48-41.52v-41.52h-305.77Z"/>
        </g>
        <g>
          <rect class="cls-31" x="942.5" y="1518.56" width="100.88" height="10.21"/>
          <rect class="cls-31" x="1066.74" y="1518.56" width="100.88" height="10.21"/>
          <rect class="cls-31" x="942.5" y="1541.21" width="139.9" height="10.21"/>
        </g>
        <g>
          <g>
            <path class="cls-7" d="M1059.65,668.52h36.93c10.27,0,18.23,2.88,23.54,8.19,4.5,4.5,6.92,10.85,6.92,18.69,0,13.04-7.04,21.23-17.31,25.04l19.73,28.85h-20.77l-17.54-25.85h-13.73v25.85h-17.77v-80.78ZM1095.43,707.75c8.65,0,13.62-4.62,13.62-11.66,0-7.62-5.31-11.54-13.96-11.54h-17.65v23.19h18Z"/>
            <path class="cls-7" d="M1141.82,714.68v-46.16h17.77v45.7c0,13.16,6.58,19.96,17.42,19.96s17.42-6.58,17.42-19.39v-46.27h17.77v45.58c0,24.46-13.73,36.46-35.43,36.46s-34.96-12.12-34.96-35.89Z"/>
            <path class="cls-7" d="M1230.33,668.52h17.77v64.62h40.27v16.16h-58.04v-80.78Z"/>
            <path class="cls-7" d="M1301.76,668.52h60.93v15.81h-43.27v16.39h38.08v15.81h-38.08v16.96h43.85v15.81h-61.5v-80.78Z"/>
            <path class="cls-7" d="M1373.54,737.52l10.5-12.58c7.27,6,14.89,9.81,24.12,9.81,7.27,0,11.66-2.89,11.66-7.85,0-4.5-2.77-6.81-16.27-10.27-16.27-4.15-26.77-8.65-26.77-24.93,0-14.65,11.77-24.35,28.27-24.35,11.77,0,21.81,3.69,30,10.27l-9.23,13.39c-7.15-4.96-14.19-7.96-21-7.96s-10.39,3.12-10.39,7.27c0,5.31,3.46,7.04,17.42,10.62,16.38,4.27,25.62,10.15,25.62,24.46,0,16.04-12.23,25.04-29.66,25.04-12.23,0-24.58-4.27-34.27-12.92Z"/>
          </g>
          <rect class="cls-7" x="1029.54" y="768.34" width="438.04" height="5.65"/>
        </g>
        <g>
          <g>
            <path class="cls-20" d="M1581.64,957.52h-147.46v-147.46h147.46v147.46ZM1441.12,950.57h133.57v-133.57h-133.57v133.57Z"/>
            <path class="cls-27" d="M1511.57,927.88c-3.09,0-6.04-1.38-8.03-3.78l-45.5-55.05c-3.67-4.44-3.04-11,1.39-14.67,4.43-3.67,11-3.04,14.67,1.39l36.09,43.66,65.28-109.57c2.95-4.94,9.34-6.56,14.28-3.62,4.94,2.95,6.56,9.34,3.62,14.28l-72.85,122.27c-1.73,2.91-4.77,4.79-8.15,5.05-.27.02-.53.03-.8.03Z"/>
          </g>
          <g>
            <g>
              <rect class="cls-31" x="992.79" y="831.82" width="327.59" height="14.39"/>
              <rect class="cls-31" x="992.79" y="896.08" width="301.91" height="14.39"/>
              <g>
                <rect class="cls-31" x="1231.08" y="863.95" width="89.3" height="14.39"/>
                <rect class="cls-31" x="992.79" y="863.95" width="213.55" height="14.39"/>
              </g>
            </g>
            <g>
              <path class="cls-31" d="M919.45,844.68l-14.66,4.07-3.02-11.63,21.87-6.98h10v82h-14.19v-67.47Z"/>
              <path class="cls-31" d="M943.01,906.97c0-2.86,2.32-5.18,5.18-5.18s5.18,2.32,5.18,5.18-2.32,5.18-5.18,5.18-5.18-2.32-5.18-5.18Z"/>
            </g>
          </g>
        </g>
        <g>
          <g>
            <path class="cls-20" d="M1582.78,1177.8h-147.46v-147.46h147.46v147.46ZM1442.26,1170.86h133.57v-133.57h-133.57v133.57Z"/>
            <path class="cls-27" d="M1512.71,1148.16c-3.09,0-6.04-1.38-8.03-3.78l-45.5-55.05c-3.67-4.44-3.04-11,1.39-14.67,4.43-3.67,11-3.04,14.67,1.39l36.09,43.66,65.28-109.57c2.95-4.94,9.34-6.56,14.28-3.62,4.94,2.95,6.56,9.34,3.62,14.28l-72.85,122.27c-1.73,2.91-4.77,4.79-8.15,5.05-.27.02-.53.03-.8.03Z"/>
          </g>
          <g>
            <g>
              <path class="cls-31" d="M901.14,1121.23l27.83-23.68c11.09-9.36,15.13-14.55,15.13-21.83,0-7.97-5.66-12.59-13.05-12.59s-12.47,4.04-18.71,12.13l-10.05-7.85c7.74-10.86,15.36-16.98,29.8-16.98,15.82,0,26.68,9.7,26.68,24.37,0,12.71-6.81,19.52-21.02,31.3l-16.63,13.86h38.46v12.47h-58.44v-11.2Z"/>
              <path class="cls-31" d="M969.2,1127.29c0-2.84,2.3-5.14,5.14-5.14s5.14,2.3,5.14,5.14-2.3,5.14-5.14,5.14-5.14-2.3-5.14-5.14Z"/>
            </g>
            <g>
              <rect class="cls-31" x="995.5" y="1052.1" width="344.24" height="14.39"/>
              <rect class="cls-31" x="995.5" y="1116.37" width="317.25" height="14.39"/>
              <g>
                <rect class="cls-31" x="1245.9" y="1084.24" width="93.84" height="14.39"/>
                <rect class="cls-31" x="995.5" y="1084.24" width="224.4" height="14.39"/>
              </g>
            </g>
          </g>
        </g>
        <g>
          <g>
            <path class="cls-20" d="M1582.78,1399.71h-147.46v-147.46h147.46v147.46ZM1442.26,1392.77h133.57v-133.57h-133.57v133.57Z"/>
            <path class="cls-27" d="M1512.71,1370.07c-3.09,0-6.04-1.38-8.03-3.78l-45.5-55.05c-3.67-4.43-3.04-11,1.39-14.67,4.43-3.67,11-3.04,14.67,1.39l36.09,43.66,65.28-109.57c2.95-4.94,9.34-6.56,14.28-3.62,4.94,2.94,6.56,9.34,3.62,14.28l-72.85,122.27c-1.73,2.91-4.77,4.8-8.15,5.06-.27.02-.53.03-.8.03Z"/>
          </g>
          <g>
            <rect class="cls-31" x="995.5" y="1274.02" width="344.24" height="14.39"/>
            <rect class="cls-31" x="995.5" y="1338.27" width="317.25" height="14.39"/>
            <g>
              <rect class="cls-31" x="1245.9" y="1306.14" width="93.84" height="14.39"/>
              <rect class="cls-31" x="995.5" y="1306.14" width="224.4" height="14.39"/>
            </g>
          </g>
          <g>
            <path class="cls-31" d="M900.11,1339.67l9.72-9.04c5.65,6.67,11.98,10.4,20.8,10.4,7.8,0,13.68-4.75,13.68-12.21s-7.12-12.21-18.2-12.21h-6.44l-2.26-8.7,21.36-22.72h-34.25v-12.09h52.33v10.4l-22.04,22.61c12.54,1.81,23.28,8.25,23.28,22.49s-11.3,24.98-27.69,24.98c-13.79,0-23.62-5.76-30.29-13.9Z"/>
            <path class="cls-31" d="M962.08,1348.54c0-2.78,2.25-5.03,5.03-5.03s5.03,2.25,5.03,5.03-2.25,5.03-5.03,5.03-5.03-2.25-5.03-5.03Z"/>
          </g>
        </g>
        <g>
          <path class="cls-31" d="M1315.54,1551.16c-29.58,0-55.35-21-61.27-49.94-.47-2.32,1.02-4.58,3.34-5.05,2.31-.47,4.58,1.02,5.05,3.34,5.11,24.97,27.35,43.09,52.88,43.09s47.47-17.91,52.77-42.58c.5-2.31,2.78-3.78,5.09-3.29,2.31.5,3.79,2.77,3.29,5.09-6.14,28.6-31.86,49.35-61.15,49.35Z"/>
          <path class="cls-31" d="M1258.35,1481.76c-.27,0-.54-.02-.82-.08-2.32-.45-3.84-2.7-3.39-5.02,5.67-29.31,31.5-50.59,61.4-50.59s53.68,19.44,60.66,47.27c.58,2.29-.82,4.62-3.11,5.2-2.29.57-4.62-.82-5.2-3.11-6.03-24.02-27.56-40.79-52.35-40.79s-48.09,18.36-52.99,43.65c-.4,2.05-2.19,3.47-4.2,3.47Z"/>
          <path class="cls-31" d="M1315.54,1577.53c-49.02,0-88.91-39.88-88.91-88.91s39.88-88.91,88.91-88.91,88.91,39.88,88.91,88.91-39.88,88.91-88.91,88.91ZM1315.54,1411.89c-42.31,0-76.73,34.42-76.73,76.73s34.42,76.73,76.73,76.73,76.73-34.42,76.73-76.73-34.42-76.73-76.73-76.73Z"/>
          <g>
            <rect class="cls-31" x="1297.93" y="1477.48" width="35.21" height="5.64"/>
            <rect class="cls-31" x="1297.93" y="1500.55" width="35.21" height="5.64"/>
            <rect class="cls-31" x="1289.63" y="1488.62" width="51.83" height="5.64"/>
          </g>
        </g>
      </g>
      <g>
        <path class="cls-17" d="M738.74,1106.29s2.77-6.23,4.56-9.18c1.79-2.95,9.46-11.59,10.76-9.63,1.3,1.96,6.52,15.12,3.75,18.81-2.77,3.69.18,10.1-13.6,13.99l-5.47-13.99Z"/>
        <path class="cls-14" d="M585.55,1066.97s70.56,58.9,98.08,53.45c21.51-4.26,54.53-15.59,54.53-15.59l6.6,16.89s-29.61,40.17-60.48,40.43c-48.26.41-83.91-20.89-83.91-20.89l-14.82-74.29Z"/>
        <path class="cls-26" d="M461.8,1688.24s2.05,33.04,8.44,33.52c.85.06,32.42.06,32.42.06l40.31-.23s-.26-9.71-12.05-11.76c-11.78-2.05-31.5-10.33-38.64-25.9-7.51-16.38-30.49,4.32-30.49,4.32Z"/>
        <path class="cls-29" d="M459.48,1690.54s12.25,4.1,21.82,4.1c10.67,0,20.37-2.91,20.37-2.91,0,0,2.31-22.31,15-71.46,6.66-25.76,16.16-58.89,29.68-100.05,37.39-113.76,48.75-180.31,49.79-186.61.06-.33.08-.5.08-.5l-.12-.05-114.94-50.47s14.21,156.78-3.92,216.96c-2.54,8.41-4.71,18.21-6.58,28.83-11.45,65.37-11.18,162.15-11.18,162.15Z"/>
        <path class="cls-12" d="M516.67,1620.27c6.66-25.76,16.16-58.89,29.68-100.05,37.39-113.76,48.75-180.31,49.79-186.61-.01-.19-.02-.36-.04-.55l-114.94-50.47s14.21,156.78-3.92,216.96c-2.54,8.41,39.43,120.71,39.43,120.71Z"/>
        <path class="cls-26" d="M551.58,1688.24s2.05,33.04,8.44,33.52c.85.06,32.42.06,32.42.06l40.31-.23s-.26-9.71-12.04-11.76c-11.78-2.05-31.5-10.33-38.64-25.9-7.51-16.38-30.49,4.32-30.49,4.32Z"/>
        <path class="cls-29" d="M616.74,1286.29s1.49,101.6-16.09,226.34c-17.58,124.74-11.62,177.7-11.62,177.7,0,0-12.08,3.91-16.95,4.31-12.42,1.01-25.15-2.91-25.15-2.91,0,0-25.16-124.79-17.95-187.23,7.21-62.44-34.45-214.25-34.45-214.25l122.21-3.96Z"/>
        <path class="cls-17" d="M535.24,1048.53l22.44,14.71,20.44-5.78c3.74-5.33,4.72-15.6,4.78-24.5.05-8.83-.8-16.32-.8-16.32l-30.27-13.36-11.29-4.98c.03.18.88,9.27,1,10.6,2.11,23.59-6.28,39.62-6.28,39.62Z"/>
        <path class="cls-7" d="M617.26,1314.53c-27.93,26.96-133.61,22.43-140.13-7.28-6.5-29.71,7.1-252.89,54.81-266.91,9.9-2.91,62.82,14.2,62.82,14.2,0,0,8.3,21.72,13.75,49.38,1.06,5.38,4.14,62.42,6.45,115.77,1.08,24.95,1.99,49.11,2.45,66.8.42,16.57.45,27.45-.16,28.04Z"/>
        <path class="cls-18" d="M543.79,1009.33c6.14,10.38,27.69,19.47,39.1,23.63.05-8.83-.8-16.32-.8-16.32l-30.27-13.36c-6.69-.09-10.77,1.41-8.03,6.04Z"/>
        <path class="cls-17" d="M593.51,1014.81s-48.77,15.21-57.78-15.3c-9.01-30.52-21.37-49.11,9.39-60.11,30.76-11,40.27-1.15,45.76,8.3,5.48,9.46,15.09,62.37,2.63,67.12Z"/>
        <path class="cls-16" d="M588.96,944.75s-3.11,35.51-10.46,33.97c-7.34-1.54-15.43-4.84-14.35,5.87,1.08,10.71-7.14,29.06-17.73,29.01-22.71-.09-47.39-58.38-41.17-69.43,17.94-31.89,109.65-38.33,83.72.58Z"/>
        <path class="cls-14" d="M581.79,1041.11c-.63-.26-36.31-16.27-40.48-14.89-4.17,1.38-9.37,14.12-9.37,14.12l62.82,14.2s-4.94-10.05-12.97-13.43Z"/>
        <g>
          <path class="cls-1" d="M803.91,1213.96l-200,188.3c-3.92,3.69-8.86,4.87-10.99,2.61l-6.75-7.17c-2.12-2.25-.65-7.12,3.27-10.81l200-188.31c3.92-3.69,8.86-4.87,10.99-2.61l6.75,7.17c2.12,2.25.65,7.12-3.27,10.81Z"/>
          <path class="cls-28" d="M691.68,1319.63l-87.77,82.63c-3.92,3.69-8.86,4.87-10.99,2.61l-6.75-7.17c-2.12-2.25-.65-7.12,3.27-10.81l87.77-82.63,14.47,15.37Z"/>
          <path class="cls-1" d="M757.94,1142.86c7.68,25.3,21.9,49,42.54,68.43,63.06,59.32,162.27,56.29,221.59-6.76,58.54-62.23,56.36-159.65-4.31-219.21-.8-.8-1.63-1.59-2.46-2.37-63.05-59.32-162.25-56.31-221.57,6.75-39.91,42.41-51.61,101.18-35.8,153.16ZM802.75,998.18c34.52-36.7,83.71-51.32,129.9-43.32,26.92,4.66,52.81,16.99,74.19,37.1,58.08,54.64,60.86,146.01,6.22,204.09-20.12,21.38-45.2,35.26-71.77,41.55-45.63,10.8-95.62-.79-132.32-35.32-58.08-54.64-60.87-146.01-6.22-204.1Z"/>
          <g class="cls-30">
            <path class="cls-11" d="M1013.06,1196.05c-20.12,21.38-45.2,35.26-71.78,41.56-45.62,10.79-95.62-.8-132.32-35.33-58.08-54.64-60.86-146.01-6.22-204.1,34.52-36.7,83.71-51.32,129.9-43.32,26.92,4.66,52.81,16.99,74.19,37.1,58.08,54.64,60.86,146.01,6.22,204.09Z"/>
          </g>
        </g>
        <path class="cls-14" d="M617.41,1286.49c-110.2-78.53-101.04-183.32-101.04-183.32,40.28,22.72,80.25,72.95,98.59,116.52,1.08,24.95,1.99,49.11,2.45,66.8Z"/>
        <g>
          <path class="cls-17" d="M726.18,1250.73c7.77-1.79,12.99-7.67,14.07-8.7,0,0,3.32.23-.54,7.3-.32.59-1.04,2.11-1.58,3.19-.22.44.09.95.58.99,4.48.34,8.99-1.43,17.63.37,1.19.25,1.54,3.1,1.49,4.32-.08,2.06.07,4.37-2.32,7.53-1.39,1.84-5.28,3.81-13.93,7.29-3.3,1.33-12.72.33-21.55-2.71l-7.06-3.27,2.19-13.11,1.77.37c2.81.59,6.3-2.85,9.24-3.57Z"/>
          <path class="cls-7" d="M550.57,1054.55s-99.02,18.85,29.13,162.25c20.5,22.93,131.23,52.79,131.23,52.79,0,0,11.23-9.56,5.57-17.29,0,0-76.24-55.37-93.02-64.17-7.55-3.96-29.29-88.37-41.59-108.7-12.3-20.33-31.32-24.88-31.32-24.88Z"/>
        </g>
        <path class="cls-17" d="M741.42,1108.03s3.24-6.19,3.87-9.46c.63-3.26,4.71-12.79,6.39-14.46.67-.67,2.89.2,3.15,3.08.11,1.26-.5,3.54-1.59,6.26-1.77,4.43-1.48,10.44-2.1,12.44-1.53,4.99-9.73,2.13-9.73,2.13Z"/>
      </g>
      <g>
        <path class="cls-3" d="M1068.46,1675.06c0,1.68.1,3.35.31,4.98.63,5.22,2.25,10.13,4.65,14.56,1.88,3.45,4.25,6.59,7,9.35,7.4,7.39,17.6,11.96,28.89,11.96h574.53c22.56,0,40.86-18.29,40.86-40.85,0-11.29-4.57-21.5-11.97-28.89-7.39-7.4-17.6-11.97-28.89-11.97h-574.53c-22.56,0-40.85,18.29-40.85,40.86Z"/>
        <path class="cls-3" d="M1112.29,1626.81h196.99c3.45,0,6.27-2.82,6.27-6.27h0c0-3.45-2.82-6.27-6.27-6.27h-196.99c-3.45,0-6.27,2.82-6.27,6.27h0c0,3.45,2.82,6.27,6.27,6.27Z"/>
        <rect class="cls-5" x="1123.17" y="1626.81" width="21.35" height="7.4" transform="translate(2267.68 3261.01) rotate(180)"/>
        <path class="cls-5" d="M1073.42,1694.6c1.88,3.45,4.25,6.59,7,9.35,7.4,7.39,17.6,11.96,28.89,11.96h121.7v-21.31h-157.59Z"/>
        <path class="cls-27" d="M1800.75,1663.09v23.93c0,2.62-.35,5.17-1.01,7.58-3.32,12.28-14.54,21.31-27.87,21.31h-598.47c-13.33,0-24.55-9.03-27.87-21.31-.65-2.41-1.01-4.96-1.01-7.58v-23.93c0-15.96,12.92-28.89,28.88-28.89h598.47c15.95,0,28.88,12.93,28.88,28.89Z"/>
        <path class="cls-25" d="M1799.74,1694.6c-3.32,12.28-14.54,21.31-27.87,21.31h-598.47c-13.33,0-24.55-9.03-27.87-21.31h654.22Z"/>
        <g>
          <path class="cls-7" d="M1741.31,1675.2c0,12.69,4.61,24.03,11.88,31.54.17.17.32.33.49.5,5.62,5.6,12.75,8.95,20.5,8.95,12.12,0,42.14-18.28,60.75-30.42,9.27-6.05,15.71-10.58,15.71-10.58,0,0-6.44-4.53-15.71-10.58-18.61-12.15-48.64-30.43-60.75-30.43-3.51,0-6.88.69-10.06,1.95-5.34,2.15-10.1,5.95-13.85,10.93-4.14,5.47-7.08,12.35-8.32,19.99-.01.09-.03.18-.03.27-.4,2.53-.61,5.17-.61,7.87Z"/>
          <path class="cls-14" d="M1741.31,1675.2c0,12.69,4.61,24.03,11.88,31.54l92.11-31.69-103.39-7.72c-.4,2.53-.61,5.17-.61,7.87Z"/>
          <path class="cls-6" d="M1750.27,1647.08l91.89,25.09-78.04-36.03c-5.34,2.15-10.1,5.95-13.85,10.93Z"/>
          <path class="cls-10" d="M1828.94,1675.2c0,4.88,2.5,9.04,6,10.58,9.27-6.05,15.71-10.58,15.71-10.58,0,0-6.44-4.53-15.71-10.58-3.5,1.53-6,5.69-6,10.58Z"/>
        </g>
      </g>
      <g>
        <path class="cls-16" d="M1991.91,928.3c-15.22-7.89-27.41-2.93-27.41-2.93-46.57-5.47-60.15,48.84-59.52,67.52.62,18.68,2.76,38.75-18.03,63.03-60.07,70.12,65.74,73.21,65.74,73.21,1.06-56.02,68.22-35.58,65.28-29.91,86.09,20.66,8.56-152.97-26.05-170.93Z"/>
        <path class="cls-17" d="M1812.29,1150.65s-8.19-12.47-14.79-12.71c-6.6-.24-18.82-3.67-17.84-1.22.98,2.44,8.56,2.69,9.29,4.16s-11.24,3.67-14.67,3.91c-3.42.24-11.49,0-11.24,1.71.24,1.71,14.54,8.8,24.62,7.82,10.09-.98,22.55,2.93,22.55,2.93l2.08-6.6Z"/>
        <path class="cls-29" d="M1930.72,1154.68s-4.45,8.81-12.53,18.94c-9.73,12.19-24.73,26.27-43.57,29.05-9,1.33-17.8-.61-25.89-4.2-.02,0-.03,0-.03,0-22.88-10.16-40.08-33.51-40.08-33.51-4.03-11,2.57-18.46,2.57-18.46,0,0,46.2,10.39,50.6,8.19,4.4-2.2,31.45-62.21,36.32-72.21,10.36-21.25,26.79-27.34,26.79-27.34l5.82,99.55Z"/>
        <path class="cls-12" d="M1918.19,1173.63c-9.73,12.19-24.73,26.27-43.57,29.05-9,1.33-17.8-.61-25.89-4.2.9.12,23.75,2.94,32.85-13.35,9.29-16.62,19.34-43.02,33.14-34.22,5.95,3.8,5.69,13.24,3.47,22.73Z"/>
        <path class="cls-26" d="M2103.08,1653.38s14.1,12.87,11.35,22.01c-2.75,9.14-15.47,15.24-17.19,26.41-1.72,11.17-8.6,17.27-14.78,17.27h-29.51s-4.56-7.86,6.45-10.23c11-2.37,15.15-15.5,14.46-27.69-.69-12.19,1.03-28.44,1.03-28.44l23.38-5.42,4.81,6.09Z"/>
        <path class="cls-26" d="M1983.76,1658.84s5.07,54.5-1.12,57.55l-79.2-.16s0-9.14,12.72-11.17c12.72-2.03,35.07-9.48,38.85-26.07,3.78-16.59,28.75-20.14,28.75-20.14Z"/>
        <path class="cls-29" d="M2044.69,1117.92s1.18,16.64,0,36.61c-.79,13.24-14.17,30.97-16.07,35.35-4.77,11-10.14,12.79-10.14,12.79l-41.59,10.19-14.62,3.58-46.11-13.77s-21-58.62-12.57-91.62c8.43-33,21.32-55.92,21.32-55.92,0,0,31.26-12.34,86.62-3.12l33.17,65.91Z"/>
        <path class="cls-19" d="M2032.52,1159.93c-.79,13.24-2,25.56-3.9,29.95-4.77,11-10.14,12.79-10.14,12.79l-41.59,10.19-18.06-5.31s60.29-9.14,53.61-61.01l20.08,13.39Z"/>
        <path class="cls-14" d="M1919.09,1211.57s-22.84,71.08-24.3,95.28c-1.47,24.2,43.65,343.77,45.47,354.92,1.71,10.51,14.76,17.21,14.76,17.21,0,0,6,3.54,14.57,1.12,11.89-3.36,15.64-7.38,15.64-7.38,0,0,17.77-227.92,6.77-309.33-11-81.42-11.13-151.82-11.13-151.82h-61.79Z"/>
        <path class="cls-7" d="M2015.83,1209.45s34.83,46.74,38.08,78.33c3.25,31.59,5.09,142.57,12.01,173.37,6.92,30.8,32.34,90.07,32.34,186.13,0,0-2.64,5.5-10.8,8.44-2.61.94-6.1,1.85-9.5,2.63-6.73,1.54-13.63-1.75-16.7-7.93-17.18-34.6-71.92-146.19-74.73-169.36-1.99-16.39-19.27-124.89-56.97-188.55-9.05-15.28,5.55-76.07,5.55-76.07l80.72-6.99Z"/>
        <path class="cls-5" d="M1915.44,1200.6s9.17,7.25,27.38,7.62c21.75.44,75.65-5.55,75.65-5.55,0,0,2.39,6.69,2.3,13.76,0,0-65.83,16.6-103.97,2.42,0,0-4.92-9.26-1.36-18.25Z"/>
        <path class="cls-9" d="M1937.6,1226.96c-5.47,0-9.93-5.04-9.93-11.23s4.45-11.23,9.93-11.23,9.93,5.04,9.93,11.23-4.45,11.23-9.93,11.23ZM1937.6,1207.78c-3.66,0-6.64,3.56-6.64,7.94s2.98,7.94,6.64,7.94,6.63-3.56,6.63-7.94-2.98-7.94-6.63-7.94Z"/>
        <path class="cls-3" d="M2082.34,1219.55l-53.46,46.55c-3.86,3.36-9.72,2.96-13.08-.9l-68.21-78.33c-3.36-3.86-2.96-9.72.9-13.08l53.46-46.55c3.86-3.36,9.72-2.96,13.08.9l68.21,78.33c3.36,3.86,2.96,9.72-.9,13.08Z"/>
        <path class="cls-17" d="M2003.26,1213.67c-.76.2-28.4,3.45-28.4,9.16,0,6.6,8.1,15.45,15.74,15.03,3.09-.17,17.35-13.28,17.35-13.28l-4.69-10.91Z"/>
        <path class="cls-17" d="M1989.07,1048.99c-3.14-7.63-4.98-19.24-4.93-33.62l-2.09.41-35.11,6.95s.8,11.05.82,21.45c0,.09,0,.17,0,.26.04,9.04-6.11,18.11,8.39,21.69,4.48,1.11,39.51-1.14,32.91-17.15Z"/>
        <path class="cls-4" d="M1946.95,1022.74s.8,11.05.82,21.45c19.64-.55,30.03-18.47,34.28-28.41l-35.11,6.95Z"/>
        <path class="cls-17" d="M1940.39,1032.59s46.48.77,46.51-28.18c.03-28.95,6.05-48.35-23.62-50.07-29.67-1.71-35.45,9.33-37.81,18.99-2.36,9.66,2.83,58.32,14.92,59.26Z"/>
        <path class="cls-16" d="M1942.11,953.63s12.73,33.97,32.26,38.99c19.53,5.02,28-.21,28-.21,0,0-14.98-11.9-18.09-32.67,0,0-32.57-22.27-42.17-6.1Z"/>
        <path class="cls-16" d="M1945.26,956.39s-9.44,3.53-13.32,10.41c-3.8,6.73-7.03,15.64-6.28,26.58,0,0-9.59-23.09,1.19-36.15,11.42-13.85,18.42-.84,18.42-.84Z"/>
        <path class="cls-17" d="M2003.26,1213.67s-6.62-2.13-11.05-1.51c-4.43.62-7.7-.09-7.7,1.15s5.71,1.82,6.93,2.41c1.21.6,11.82-2.06,11.82-2.06Z"/>
        <path class="cls-29" d="M2011.52,1052.01s32.99,2.31,45.64,33.06c12.65,30.74,36.64,82.36,36.64,91.05s-13.4,35.45-85.39,50.84c0,0-7.44-7.83-6.99-14.03,0,0,44.94-38.6,44.82-43.11-.23-8.53-7.37-19.8-46.82-59.26-10.73-10.73,12.11-58.55,12.11-58.55Z"/>
      </g>
      <g>
        <g>
          <path class="cls-5" d="M894.89,138.02s-26.47-4.48-43.25,8.2-19.47,8.58-28.94,16.41c-9.47,7.83.22,17.15-5,22.38-5.22,5.22-5.42,15.29,2.32,17.9,7.75,2.61,2.53,16.78,19.31,18.65,16.78,1.86,9.26,9.63,25.18,10.81,15.91,1.18,29.08,1.73,37.47,5.25,8.39,3.52,15.99-.12,18.39-6.5,2.4-6.39,9.11,1.85,11.07-6.88,1.96-8.73-5.03-12.18-1.12-19.27,3.92-7.09,13.59-57.43-35.44-66.94Z"/>
          <path class="cls-17" d="M940.67,646.07c-1.83,2.12-2.05,4.49-1.12,7,0,0,0,.02.02.03,1.72,4.65,7.33,9.82,13.84,14.97.83.66,1.57,1.26,2.22,1.82.17.15.34.29.5.44.13.11.26.23.38.34,6.08,5.52,3.81,6.81,14.74,18.03,12.46,12.78,20.97,12.95,23.39,11.76,2.04-1.01-2.17-7.81-6.84-15.45-.23-.37-.45-.74-.68-1.11-.62-1.02-1.24-2.05-1.86-3.07-5.47-9.19-4.11-13.54-2.93-27.28.96-11.17,16.93-62.49,16.93-62.49l-23.73-3.91s-6.85,40.83-14.67,47.16c-4.18,3.38-8.89,3.45-12.91,5.96-.28.17-.56.35-.84.54-2.29,1.54-4.61,3.13-6.45,5.26Z"/>
          <path class="cls-5" d="M940.67,646.07c-1.83,2.12-2.05,4.49-1.12,7,0,0,0,.02.02.03,2.1,4.64,7.57,9.78,13.86,14.92.82.67,1.55,1.29,2.19,1.87.17.15.34.29.5.44.13.11.26.23.38.34,6.08,5.52,3.81,6.81,14.74,18.03,12.46,12.78,20.97,12.95,23.39,11.76,2.04-1.01-2.17-7.81-6.84-15.45-2.41-.86-13.63-5.33-22.16-16.09-7.51-9.45-12.57-21.62-17.69-28.66-.28.17-.56.35-.84.54-2.29,1.54-4.61,3.13-6.45,5.26Z"/>
          <path class="cls-17" d="M1131.67,629.92c1.52,7.31,11.93,6.01,23.56,3.08,11.63-2.93,8.88.47,25.45-1.48,16.57-1.95,21.55-8.17,22.04-10.64.44-2.19-7.76-2.9-16.56-3.86-1.11-.12-2.22-.25-3.33-.37-9.93-1.17-17.24-7.53-26.29-12.72-8.57-4.92-21.45-25.12-21.45-25.12l-22.73,1.96s12.06,18.04,16.73,25.89c2.75,4.62,2.65,10.75,2.34,15.48-.16,2.57-.31,5.2.23,7.78Z"/>
          <path class="cls-5" d="M1155.23,633c11.63-2.93,8.88.47,25.45-1.48,16.57-1.95,21.55-8.17,22.04-10.64.44-2.19-7.76-2.9-16.56-3.86l-.08.17s-9.89,7.12-23.69,7.55c-11.25.35-23.19-2.79-30.95-2.61-.16,2.57-.31,5.2.23,7.78,1.52,7.31,11.93,6.01,23.56,3.08Z"/>
          <path class="cls-2" d="M1043.5,485.13l-20.85,57.35-27.22,74.88s-7.53.78-14.75-1.24c-6.65-1.87-14.31-6.84-14.31-6.84,0,0,7.14-80.25,21.19-126.38,3.6-11.84,7.66-21.43,12.18-26.84,22.1-26.49,43.77,29.07,43.77,29.07Z"/>
          <path class="cls-27" d="M1021.24,394.44c-13.96-4.39-53.64,1.65-93.48,9.75l-8.45-13.72-86.23-6.12s-27,59.73-12.14,103.34c2.88,8.46,16.69,8.76,16.69,8.76,0,0,50.52.55,67.17.43,42.86-.3,90.5-30.1,96.68-31.38,10.12-2.1,14.31,18.14,24.59,39.34,10.28,21.2,95.9,93.55,95.9,93.55,0,0,13.08.04,18.47-2.03,5.79-2.22,7.9-5.07,7.9-5.07,0,0-95.62-186.94-127.1-196.85Z"/>
          <path class="cls-17" d="M892.14,257.58c.14.09-15.06,5.4-25.28.96-9.61-4.17-16.98-19.88-16.84-19.89,4.36-.23,9.12-4.08,12.63-29.11l1.86.65,31.29,11.01s-2.19,10.03-3.59,19.58c-1.18,8.01-1.78,15.69-.07,16.81Z"/>
          <path class="cls-8" d="M895.8,221.2s-1.33,7.03-3.19,17.08c-17.95-3.1-25.51-18.41-28.11-28.09l31.29,11.01Z"/>
          <path class="cls-17" d="M900.52,231.1s-42.75-5.43-38.95-32c3.79-26.57.83-45.16,28.28-42.82,27.45,2.34,31.3,13.24,32.19,22.41.89,9.18-10.3,53.13-21.51,52.4Z"/>
          <path class="cls-5" d="M920.37,164.17s-27.17,23.75-45.75,25.78c-18.58,2.03-25.66-3.89-25.66-3.89,0,0,10.9-9.18,17.39-23.91,1.91-4.34,6-7.34,10.72-7.78,13.27-1.24,38.44-1.94,43.3,9.8Z"/>
          <path class="cls-5" d="M903.27,162.18s9.21,8.78,12.13,15.32c2.82,6.31,3.76,21.44,1.59,27.47,0,0,14.05-27.81,5.89-41.21-8.65-14.21-19.62-1.57-19.62-1.57Z"/>
          <path class="cls-7" d="M928.54,320.24c-.68,86.45.13,68.38-9.27,76.65-2.26,1.99-8.66,3.21-17.09,3.83-26.49,1.95-73.12-2.09-74.93-6.98-6.23-16.91-1.95-22.2-7.24-48.12-.55-2.76-1.23-5.74-2.03-8.99-4.38-17.79-8.56-23.83,6.33-52.57,13.5-26.03,27.57-47.19,28.85-46.43,36.25,21.18,39.04,3.14,39.04,3.14,0,0,36.67,37.29,36.34,79.46Z"/>
          <path class="cls-27" d="M1022.64,542.48l-27.22,74.88s-7.53.78-14.75-1.24c-6.65-1.87-14.31-6.84-14.31-6.84,0,0,7.14-80.25,21.19-126.38l35.1,59.58Z"/>
          <path class="cls-7" d="M892.21,240.77s37.19,6.04,41.67,22c4.47,15.96,30.81,109.81,30.81,109.81,0,0-18.86,3.53-27.65-5.14-8.79-8.66-30.93-80.73-30.93-80.73l-13.9-45.95Z"/>
          <path class="cls-14" d="M902.19,400.72c-26.49,1.95-73.12-2.09-74.93-6.98-6.23-16.91-1.95-22.2-7.24-48.12l12.53-36.09s-1.83,40.1,10.07,50.57c11.88,10.46,48.55,20.01,54.36,28.78,2.8,4.21,4.65,8.44,5.21,11.84Z"/>
          <path class="cls-17" d="M871.7,384.07s26.11-6.01,30.35-3.72,14.61,10.67,15.92,13.6c1.31,2.93-9.41-2.17-12.89-3.07-2.25-.59-8.17,1.51-11.09,2.51-12.31,4.2-19.89,2.14-19.89,2.14l-2.39-11.46Z"/>
          <path class="cls-7" d="M853.15,237.62s-35.1,2.41-47.13,19.45c-16.94,23.99-50.17,125.93-30.62,139.36,22.02,15.12,99.73,3.29,99.73,3.29,0,0,2.5-12.12-1.14-17.95-3.64-5.83-62.25-14.87-64.97-17.55-2.72-2.68,33.4-52.92,33.34-61.03-.06-8.11,10.78-65.58,10.78-65.58Z"/>
          <path class="cls-17" d="M903.36,387.63s5.53,7.03,7.33,7.86c1.8.83,2.96.61,2.96.61l-3.74-6.62-6.55-1.85Z"/>
          <path class="cls-17" d="M902.04,380.36l15.98,7.62s-.67,1.11-2.63,1.04c-1.96-.08-6.92-1.85-6.92-1.85l-6.43-6.81Z"/>
        </g>
        <g>
          <g>
            <polygon class="cls-5" points="907.28 406.89 1033.3 406 1070.54 311.47 944.72 312.36 907.28 406.89"/>
            <polygon class="cls-5" points="1034.75 402.32 868.35 403.5 868.37 407.17 1033.3 406 1034.75 402.32"/>
          </g>
          <path class="cls-15" d="M1001.15,359.1c.93-3.32-1.01-5.99-4.32-5.97-3.31.02-6.75,2.73-7.68,6.05s1.01,5.99,4.32,5.97c3.31-.02,6.75-2.73,7.68-6.05Z"/>
        </g>
      </g>
      <path class="cls-24" d="M266.32,1715.61h91.96c4.93-4.18-3.41-13.67-12.12-14.31-3.78-.29-8.57.51-14.04,1.66-1.27-16.81-8.49-92.37-35.73-89.33-30.62,3.4,0,33.28,8.66,50.96,6.41,13.1,13.18,31.89,16.27,40.75-2.49.54-5.06,1.07-7.69,1.55-4.06-12.46-19.16-54.38-38.37-51.94-22.55,2.86-13.49,19.67,2.5,29.64,11.73,7.34,26.12,17.77,32.97,22.8-5.8.95-11.85,1.58-17.98,1.44-15.75-.37-23.44,4.27-26.42,6.77Z"/>
      <path class="cls-24" d="M2256.61,1715.4h-101.74c-5.45-4.62,3.77-15.13,13.41-15.83,4.19-.32,9.48.56,15.53,1.84,1.4-18.6,9.4-102.19,39.53-98.83,33.88,3.76,0,36.81-9.58,56.38-7.1,14.49-14.58,35.28-18,45.09,2.75.6,5.6,1.18,8.51,1.72,4.49-13.79,21.2-60.17,42.45-57.47,24.95,3.16,14.92,21.76-2.76,32.8-12.97,8.12-28.9,19.65-36.47,25.23,6.41,1.05,13.11,1.75,19.9,1.59,17.43-.41,25.93,4.72,29.23,7.49Z"/>
      <path class="cls-5" d="M112.07,1715.26h2290c1.6,0,2.9,1.3,2.9,2.9v1.78c0,1.6-1.3,2.9-2.9,2.9H112.07c-1.6,0-2.91-1.3-2.91-2.91v-1.78c0-1.6,1.3-2.9,2.9-2.9Z"/>
    </g>
  </g>
</svg>